<mxfile host="app.diagrams.net" modified="2023-05-20T10:34:33.655Z" agent="Mozilla/5.0 (X11; Linux x86_64; rv:109.0) Gecko/20100101 Firefox/113.0" etag="WwLoCmh-L-sBwwgHUDM6" version="21.2.1" type="github">
  <diagram id="kgpKYQtTHZ0yAKxKKP6v" name="Page-1">
    <mxGraphModel dx="3057" dy="1093" grid="1" gridSize="10" guides="1" tooltips="1" connect="1" arrows="1" fold="1" page="1" pageScale="1" pageWidth="1200" pageHeight="1600" math="0" shadow="0">
      <root>
        <mxCell id="0" />
        <mxCell id="1" parent="0" />
        <mxCell id="x4ki8EkPmhbNd4kiTr1v-2" value="" style="swimlane;startSize=0;movable=0;resizable=0;rotatable=0;deletable=0;editable=0;locked=1;connectable=0;" vertex="1" parent="1">
          <mxGeometry x="205" y="50" width="200" height="120" as="geometry" />
        </mxCell>
        <mxCell id="x4ki8EkPmhbNd4kiTr1v-1" value="identity provider" style="ellipse;shape=cloud;whiteSpace=wrap;html=1;movable=0;resizable=0;rotatable=0;deletable=0;editable=0;locked=1;connectable=0;" vertex="1" parent="x4ki8EkPmhbNd4kiTr1v-2">
          <mxGeometry width="200" height="120" as="geometry" />
        </mxCell>
        <mxCell id="x4ki8EkPmhbNd4kiTr1v-5" value="" style="swimlane;startSize=0;" vertex="1" parent="1">
          <mxGeometry x="150" y="370" width="200" height="120" as="geometry" />
        </mxCell>
        <mxCell id="x4ki8EkPmhbNd4kiTr1v-6" value="game server" style="ellipse;shape=cloud;whiteSpace=wrap;html=1;movable=0;resizable=0;rotatable=0;deletable=0;editable=0;locked=1;connectable=0;" vertex="1" parent="x4ki8EkPmhbNd4kiTr1v-5">
          <mxGeometry width="200" height="120" as="geometry" />
        </mxCell>
        <mxCell id="x4ki8EkPmhbNd4kiTr1v-7" value="" style="swimlane;startSize=0;" vertex="1" parent="1">
          <mxGeometry x="380" y="370" width="200" height="120" as="geometry" />
        </mxCell>
        <mxCell id="x4ki8EkPmhbNd4kiTr1v-8" value="chat server" style="ellipse;shape=cloud;whiteSpace=wrap;html=1;movable=0;resizable=0;rotatable=0;deletable=0;editable=0;locked=1;connectable=0;" vertex="1" parent="x4ki8EkPmhbNd4kiTr1v-7">
          <mxGeometry width="200" height="120" as="geometry" />
        </mxCell>
        <mxCell id="x4ki8EkPmhbNd4kiTr1v-9" value="" style="swimlane;startSize=0;" vertex="1" parent="1">
          <mxGeometry x="630" y="370" width="200" height="120" as="geometry" />
        </mxCell>
        <mxCell id="x4ki8EkPmhbNd4kiTr1v-10" value="general api" style="ellipse;shape=cloud;whiteSpace=wrap;html=1;movable=0;resizable=0;rotatable=0;deletable=0;editable=0;locked=1;connectable=0;" vertex="1" parent="x4ki8EkPmhbNd4kiTr1v-9">
          <mxGeometry width="200" height="120" as="geometry" />
        </mxCell>
        <mxCell id="x4ki8EkPmhbNd4kiTr1v-11" value="DB" style="shape=cylinder3;whiteSpace=wrap;html=1;boundedLbl=1;backgroundOutline=1;size=15;movable=1;resizable=1;rotatable=1;deletable=1;editable=1;locked=0;connectable=1;" vertex="1" parent="1">
          <mxGeometry x="550" y="65" width="60" height="80" as="geometry" />
        </mxCell>
        <mxCell id="x4ki8EkPmhbNd4kiTr1v-13" value="" style="swimlane;startSize=0;movable=1;resizable=1;rotatable=1;deletable=1;editable=1;locked=0;connectable=1;" vertex="1" parent="1">
          <mxGeometry x="530" y="45" width="100" height="130" as="geometry" />
        </mxCell>
        <mxCell id="x4ki8EkPmhbNd4kiTr1v-14" value="FRONTEND" style="whiteSpace=wrap;html=1;aspect=fixed;movable=1;resizable=1;rotatable=1;deletable=1;editable=1;locked=0;connectable=1;" vertex="1" parent="1">
          <mxGeometry x="1040" y="530" width="80" height="80" as="geometry" />
        </mxCell>
        <mxCell id="x4ki8EkPmhbNd4kiTr1v-18" value="Load balancer" style="rounded=1;whiteSpace=wrap;html=1;" vertex="1" parent="1">
          <mxGeometry x="480" y="700" width="120" height="60" as="geometry" />
        </mxCell>
        <mxCell id="x4ki8EkPmhbNd4kiTr1v-3" value="" style="swimlane;startSize=0;" vertex="1" parent="1">
          <mxGeometry x="860" y="370" width="200" height="120" as="geometry" />
        </mxCell>
        <mxCell id="x4ki8EkPmhbNd4kiTr1v-4" value="&lt;div&gt;auth server&lt;/div&gt;" style="ellipse;shape=cloud;whiteSpace=wrap;html=1;movable=0;resizable=0;rotatable=0;deletable=0;editable=0;locked=1;connectable=0;" vertex="1" parent="x4ki8EkPmhbNd4kiTr1v-3">
          <mxGeometry width="200" height="120" as="geometry" />
        </mxCell>
        <mxCell id="x4ki8EkPmhbNd4kiTr1v-25" value="external id provider" style="ellipse;shape=cloud;whiteSpace=wrap;html=1;movable=1;resizable=1;rotatable=1;deletable=1;editable=1;locked=0;connectable=1;" vertex="1" parent="1">
          <mxGeometry x="1060" y="760" width="200" height="120" as="geometry" />
        </mxCell>
        <mxCell id="x4ki8EkPmhbNd4kiTr1v-35" value="" style="shape=image;verticalLabelPosition=bottom;labelBackgroundColor=default;verticalAlign=top;aspect=fixed;imageAspect=0;image=data:image/png,iVBORw0KGgoAAAANSUhEUgAAAuEAAAI7CAYAAABC5UXbAAAABHNCSVQICAgIfAhkiAAAABl0RVh0U29mdHdhcmUAZ25vbWUtc2NyZWVuc2hvdO8Dvz4AAAAudEVYdENyZWF0aW9uIFRpbWUAU2F0IDIwIE1heSAyMDIzIDExOjIzOjIxIEFNIEVFU1SEo/NdAAAgAElEQVR4nOzde3xU9Z3/8fc5Z24JSSCROygghIuKV2q9Ui/Vbrtda7W1Pmy1Wi+tblt3a1u1q/1pW2u7te7qrqtWu/gAta3rahdFkbqtWtGWBRQUkQABgXCVAAkkczvn/P7g8T2emSTkPpkkr+fjwYNkMjM5c8mZ93zmcz5fy/d9XxjwzMPc1sPd2ulduYw5vSd/dqinqGVZwb+O/syyLNm2HXzd0evrDt/3lclklMlk5LquLMtSJBIJ/rmuK9d1lc1m5XmebNsOttNxHDmO0yvbBQB9xfd9ua6rTCaTs09E/+L7vtLptNLptLLZrGKxmOLxOI9lB3APFameem9kgm34Xz7P8+R5XquX9Tyvzcu0dn0mKJqQG2bbdhAu2/pZvvD19dcA6vu+stmsMpmMPM/LCdTmn3nxicViymazwfl935dt24pGo4pEIsH90F/vCwAwzGuMJPZr/ZR5fUulUnJdV9FoVCUlJa2+nqMlQngfOVQwbiv8Hur0Q4Vs6dBV4bZ2frZtt/pONj9AdtShztvVn/UHptojKahqm+/zmUDuOI6i0WhQHU+lUkqlUnIcJwjsJswDAFBonucpm82qublZvu8rFosRwDuJEB5yqCDb3Z91RX7AMtfTWlXY/OxQrRmtXWdPXwa5PM+T67pBi4njOLJtu9VPHozwGxzzCUEkEgnegJnWlXCrSn/+pADA4GWKSwS3/sXzPGUyGaVSqSCAx2IxHsdO6hchvL0+4p6+jO/7rYbcnvxdUvtV6Pb6nAvVz4yuMS8u2WxW0kdV8I4KB3HzHAv3jpuvTQgP/+M5AKDYdadIhb4TPsbJ931Fo1HFYjF6wLugV+6xnvyjMn+kh2rD6Ew/c3utG13paT7U6QTjwSt8oKVpIbEs65BV8LaEn5fRaDQI9+l0WqlUSpJabVXheQegmOV/6ofiFu4B931f8Xhc8Xic15ou6lIIby/89mQw7sr0C+mjQNLeZXq7p5kn5uAUrlpL6vH+bRPGHccJflc4lEcikRYHcwIA0FXhHnBz3FI0GuX1pRsiyWTykJXrzn5c1F5Qbe+dbmf7j9sL6If6HTxx0BtMKPY8T5Zl5fRs9+SnROa6zQQV0zvuum7Ox4XmdHrHARSbtiZwobiYHvB0Oh0UgaLRKJ9edFPE9KseyqHaNjo7baMrVW2gvzBvWrPZbBCOTTW6t7TWO27GHIYPDA0fxMmoQwBAR+T3gMfjcQJ4D4kc6uNqDvICOscEYDO9xFSgC8UE61gsFvSOu67bonecueMAigVZo3iFe8AlKZFI0ILSgyKxWGxAz2gGCqW11d8KGcDzhVthzIjD1uaOh/v6+HsHAEgfvaY1NTXRA95LInycAHRf+OBI3/eLqv+6rbnj9I4D6EttjQRG3wu/phHAew9DHYEeYD6yMwdj9nYfeFfk946HK+NmkovpHQ8vLESFHEBPY0Z48QoHcNd1gxngxfaaNhAQwoFuMjssU9HpD0vKm1YVx3EUi8XanDuefwR8Md8mAP0T4a64mE9IXdct2qLSQEEIB7rBVJTNUePhRXn6EzNyKr93PJ1OK5lMMnccAAY483qWTqeD4QK0oPQuQjjQDaaCbPrATQtHf9Ra77jnecE/escB9JTw4n20pfS9/BYUs5/vj0Wl/oQQDnRRuGIsKQjh/V1n546b1ht6xwF0VDh4s+/oW+EAns1mc1Zk5nHpXYRwoIvyD1wZiDusQ80dT6fTOT3wHMgJoLP4NK3v5feAm9ZDHpfeRwgHuiB8MKbplx7oO6z8ueNmoorrukqlUkFLDnPHAaD4tdUDTgAvHEI40EmmamDGEZrpIYNlp5XfO+44TlAhN/eNmS1rQvtgun8AtM+0ujEnvG/QA14cCOFAJ4R3XNLBPvDButMKjznMnztuDlg1b1SYOw6gLewTCose8OJBCAc6ITwNharBR/LnjruuG1TEw29YmDsOIIwAXnj0gBcPQjjQQaZyYMb0mX9oybZtxeNxRaPRnBaVVCqldDodvIFhEQgAKAx6wIsPIRzogHC7hakc8NFd28z9YlpVTKXc9I2Hg7npReRNDTB4hOeDsx/tfeFRswTw4kEIBzrABHBpcPeBd0W4VcUs/GOmqoQXA8rvGyeQAwNX/gI97E97TziAm4PmKSQVB8tnqSoA6DWm6uT7fvC/ZVktFivJZDJqbm7WgQMHtH37dq1Zs0Y1NTVat26dtm3bpsbGRh04cECpVEqxWEwVFRUqLy/XhAkTNHXqVB155JGaOXOmhg4dqpKSEg0ZMqTFC6xlWcEbHlOJNF+bnwMACoMQDgC9oK1Kn2lpMt/v3btX7733nt5//31t375d27Ztk+M4mjhxog4//HAdccQRGj16tIYMGaKSkhJFo1Fls1nt379fzc3N2rhxo7Zs2aKNGzfqgw8+UFlZmUaMGKFx48bpuOOO05QpUxSPx3M+WTDbZtt2MMEmvI0AgN5HCAeAXmJGgUUikRaV5127dunZZ5/V0qVLNXLkSFVXV2vKlCmaNGmSRo4cGXxUHK6ah0NyeNfteZ4cx1EymVRdXZ0++OADrVmzRhs2bFBDQ4M+9alP6ZOf/KTKysqC62lt108IB4DCIYQDQC8wbSeu6wb98JKUzWY1b948zZs3T+ecc46+8pWvqKqqSuXl5ZJ0yH54s7sOL3Bi/g8vfGL67BsbG7VlyxY9+OCD2rZtm771rW/p7LPPzrmsaU8BABQWIRwAepGphieTSa1evVp33323Ro8erZtvvllHHHFEEM4dx8m5jKmam+/bqlLn78Kz2awikYPH3GcyGUWjUUnSX//6V91111064ogj9O1vf1sTJ04MptKE21MAAIVBCAeAXmIC9vr16/X0009rw4YNuuSSS4JqdFtBuyNtIa3tusMHXZrrNdMQzM9/97vf6bXXXtOJJ56oL37xixo6dGjwuwnhAFA4hHAA6KZw+A23h1iWpcWLF+uxxx7TKaecor/7u7/TiBEjgsuZIN4TvdjhqSuHuj7XdbVx40Y988wzev/993XjjTdq5syZwfa0dp0AgJ5HCAeAbggvOpJfUf7P//xPzZkzR/fcc4+OP/54xWKxnCp1X0omk3rllVf0z//8z7r11lv1yU9+MjjAM3wgaLi9BQDQc9izAkA3tNZCsn//fs2bN0+LFi3SCy+8oLKysmAUYDFUln3fVzwe17nnnqtJkybpjjvukOu6Ou+883ICuJnsAgDoeX1fjgGAfs60gXiep3Q6rTlz5mjjxo16+OGHVVpaKklBu4rpEy8GjuOourpa3/nOd/TMM89o/vz58jyv1QNDAQA9ixIHAHRD/oi/hx56SBs3btR3vvOdoP87XF0uhlYUKXebZs2apdLSUt15551KpVL60pe+1OkDRQEAnUNPOAB0k5kF/qtf/UrPPfec5syZo6qqKvm+32L0oOm77ivhbTBVedMms337dl177bX65je/qU996lM5lyGIA0DPKo6SDAD0M6Z+YXq9X331Vc2fP19PPvmkqqqqZNt2iwBuWVafBnBJwTaYdpNwZX7UqFH6f//v/+npp59WbW1tUbXOAMBAQwgHgA4woTubzQbfm2C9YcMGPf3007rllltUXl7eatW42CrJ4e0Jfz1z5kx9/OMf15NPPqlkMhnczvCbjmLrbQeA/ogQDgAdkL/Uu5HJZPT73/9eM2bM0Mc+9rGccYX9USwW00UXXaRdu3bp+eefD07PP1gTANA97E0BoINM77f00bSTdevWaenSpbrkkksUjUZ7dAGeQjNjCauqqvQP//AP+tGPfqRt27YFPePhNyK2bct13T7eYgDovwjhANBB5mBGE1ZTqZRuueUWXXXVVaqsrAyqxP0xgBuO48h1XU2aNEnf/va39bOf/UyZTEaScqr8VMUBoHvYgwJAB5g+6PDy9E899ZRGjRqlc845R7Zt50wb6a/tKCZc+76vq6++Wo2NjXrjjTckHewHN29CAADdQwgHgA4Kt5rs3r1bzzzzjP7pn/5JjuO0CKb9Majmjyy0LEuXXnqpXn75ZTU0NFD5BoAexB4VADoo3Ou9cOFCzZo1SxMnTgxO6+8hNbz9piJ+3HHHKZVKae3atUEwN/dDf632A0Ax6N+vGABQACZsmpDa0NCgZcuW6YILLujLzeoV4XYb13U1YsQITZgwQatXr87pDc9fKRQA0DnsQQGgHabSbcJnbW2tysrKNGbMmD7esp4VrmyHD7w8+eSTtXz58qAnPH+RHwBA57EXBYAOMJVh3/dVU1Oj0aNHq6qqqq83q0eZFpPwQkS2beuoo45SfX29Nm/eHFTKwwv4AAA6jxAOAB3g+74cx1Emk1Ftba1mzJihSCTS15vVo8Jzv820F8/zNGTIEJ144ol66aWXgnAenhsOAOg8QjgAdIAJnK7rqra2VpMnTx5wleBwi4lpO3EcR77v67TTTtOCBQuCnw202w4AhUYIB4BO2L59u1KplMaNG9flSnB+73Vb7R2tBV1zmhkn2F4YDv/cXKYtph0l3PNtKt8zZ87Uhg0btHv37uBn7V0fAKBthHAA6AATZleuXKnJkycrEon0ajU4HLJN5TkcesNvAHzfD/rVw9tq2ktMW0lHtjf/gEvze+LxuKZNm6Y1a9a0mBYDAOg89qAA0AGmSrxy5UpVV1d3qyfa932l0+mc1SdNwM5mszmTScLjAvODt6TgdNu2cw4eNT3s4e10HKfLt92yLJ144omqqanp0nUAAHIRwgGgA0zoXbVqVbf7wS3LUjQa1erVq/XDH/5Q0sGq8iOPPKLbbrstqFzPmzdPCxculCRFIpEgcJsKdzableM4WrRokf73f/9XnufJcRzZtq1169bpnnvuyfmd4dvRFTNnzlRNTQ394ADQAwjhANBBtm1r48aNGjVqVLeDqO/7Gjt2rH7zm99o7969OnDggJ566iktW7ZMtbW1cl1Xc+bM0bhx4+S6rnbs2KEdO3bIdV3Ztq3GxkY1Nzdr06ZNWr9+vbZs2SLP84LTNm/erCVLlgS/y7KsbvdwT5w4UXV1dS2q9wCAzhtY87UAoBf5vq/GxkaVlZV1azyfuWxFRYVOOOEEvfvuu4pGo6qurtbkyZO1ePFiJRIJeZ6nKVOm6L/+67+0fPlySVJlZaVuuukmPfLII9q4cWMQ5seMGaNUKqVbbrlFFRUVqqurU1NTk6SDbx5MFb07211VVaXGxsbgvqAnHAC6jj0oAHSACbANDQ0aMmRIt8Js+MDG8847T8uXL9eyZct09tln6xOf+ISWLVumJUuW6KyzzlJDQ4NeeuklffWrX9Vtt92mmpoa/eEPf9DKlSt1zDHH6K677lJlZaUsy9KTTz4p3/f1/e9/X6ecckoQ5E1/uJn93RWe5wUhnBnhANB9hHAA6AATnFOplGKxWLdXjDSXnz17tlatWqXVq1frpJNO0vjx4xWJRPTHP/5Rs2fPVjKZVCaTUXV1tYYOHapZs2Zp3bp1wezuYcOGBZNali1bppNPPlnl5eU66aSTgoM1ze8zrSxdYdu2hgwZElTXAQDdQwgHgA4wYXbIkCFqbm7udjXYXHb48OHau3evstmshgwZovLyclVVVWnNmjWaMmWKIpGIIpGIdu/eLdd1tX79elVVVQUHd4ar6kceeWQwQrCuri74XSbwmyXnu8L3fTU0NKiioiLYfg7QBICuoyccADrI932Vl5erqalJZWVlXb6ecIAtKSnRyJEjVVlZqaFDhyoajWrUqFEaOXKkSktLVVpaqmOPPVY/+tGPgoMrzz33XL388sstVrj84he/qNtuu0033nij9u/fr3Q6HWx3/sjDrti7d6/Ky8tzDvTs6thDABjsLJ9SBgB0iGkfmTNnjqZMmdIj1+d5nlKplHzfV0lJiWzbViqVUjqd1pAhQ4Lvd+7cKdd1ddhhh6msrEwHDhxQLBZTNBoNwnYsFlNDQ4P27t2rkpISJRKJnDcL3T2QcunSpXrggQc0Z86cYPvpDQeArqESDgAdZFmWqqurtWnTpm6F8PCkEsdxVFJSElx/JpNRLBZTLBYLKuaxWEyHH354TgXaHBzq+74ikUgQsMvLy1VeXh60noSr7t0Nze+9954mTpyYc38AALqGnnAA6ISjjz5atbW13boOc8BkeCl5E2ij0WhOv3l4+Xrzv/m5uby5vvyv82eDd/eDzxUrVmjGjBndug4AwEGEcABoR3gSyvTp01VbW9vtFTNNFby9AzzD58k/r23bOS0m5mfh8+Wf/1Dauk3m9r/11luqrq5u/wYCANpFCAeAdphQ67quTjvtNNXU1CiZTPbZipH5ob21wB3+WUcnueSfx4Rvy7K0f/9+1dbWaubMmTkVfABA1xDCAaCDbNtWNBrV2LFjtWHDhgG9YmR+yH7ttdd09tlnB4v+dHdOOgAMdgP3FQQAepCZZBKPxzVp0iTV1NQM6BAarqD7vq8lS5bos5/9bPC9uT8AAF1DCAeAdoQXu3EcR9XV1UFLymCwZ88ebdiwQWeeeWbOGw9mhANA1xHCAaAd4YqwbduaOnWq9uzZo127dvX1pvU63/e1dOlSTZo0SZWVlcFpjuNQCQeAbiCEA0AHmR7w8ePHy/d9rV+/vo+3qHf5vq90Oq133nlHxx13nCKRiCzLCu6HgdwTDwC9jT0oAHRAeG53SUmJzjnnHD399NNBq0p4jnd/7RUP3xbP82RZlrZu3aq6ujrNnDkzuA/6820EgGJBCAeADshfVOf000/Xnj17tHjx4uD0bDbbr1eRDC/uY0Yy/vnPf9aYMWM0YcIESbmrbhLEAaDrCOEA0AEmoJoAWlJSom9961u6+eablclk5HmeIpFIcP7+GFCz2WxwsKUJ4Y8//rg+97nPKRqNSmr5ZgQA0DWEcADoAFMBdl036Iv++Mc/rhNPPFGPP/54TitHRxfHKTaRSCSohGcyGd1+++06//zzNWXKlOBNiJkRHn5DAgDoPEI4AHSAqQCbqSAmbN9yyy3685//rPfffz+nnaM/VsLDrSZ/+tOf9O677+qaa66RpJwAbqbEAAC6jr0oAHRA+MDMcAV49OjROv/88/XUU0+poaFBtm332yqxeeOwdu1a/fa3v9VPfvITDR06NKjsu64bnJfxhADQPYRwAOgAE0Rt285ZTdKyLF1wwQXau3evFi1alDPCz4Ra13WLqjIenm5its1Uupubm/Xkk0/qtNNO07HHHpvTXuM4TnD7qIQDQPewFwWAbrBtW/F4XN/61rc0Z84cvfXWWzkVYyl3ZcliCOPhxYfCB2J6nqf58+dr//79uvDCC+U4DmEbAHoJe1cA6AYTZCdPnqxbb71Vd955p9588025rhu0bBRbn7iphIcr9L7v69lnn9WLL76or33tazrssMP6eCsBYGCLtH8WAMChmKry6aefLsdx9OCDD6qkpETHH398cJ5iPJgxEokEIfzZZ5/VE088obvuukvTp0/P6WkPH7AJAOgZxfWKAAD9jAngximnnKLLL79cP/7xj7Vu3bqg19oE8PxWlb7g+76y2Wzw9bPPPqvHH39c//Zv/6YZM2bI931lMhlJLQ9EBQD0DMsvls9HAWCAcF1XL730kh599FHdfPPNOu644xSLxYpifnj4IMzGxka9/PLLeu655/Td735X06dPD6a7OI4j13XlOA6VcADoBYRwAOim1laR9H1ff/7znzVv3jwde+yxuuSSSzRixIicySnhKnr+UvCdCb0dDcnh37l+/XrNnTtXjY2Nuu666zRt2rQW7TKEbwDoPYRwAOhFmzZt0m9+8xtt3rxZN954o6ZMmRL0h4crzfnCodycvyMBPXygZWvny2QyevXVV/XEE0/onHPO0Wc+8xkNHz6cwA0ABUYIB4Be4HmePM9TJBJRKpXSSy+9pFtuuUXXX3+9brjhhiB8m9YPIxyGXdfNaWHJD8nhynb+9YRls9ngsjfffLPeffdd/fznP9eMGTOC2d/F0CoDAIMJIRwAeonZvZqAvH37dt1zzz3asWOHLr74Ys2aNUtjxozJaUsxiwGFryO/Kh4O5a1VsMN935lMRps3b9Ybb7yhJ554Quedd56uu+46lZWV5VyGAA4AhUUIB4Bekr+0u23bymazWrJkif7whz9o3759mjhxombNmqWZM2dqyJAhQduJCdj5Ibu1sBzejZtFd+rr6/X2229r2bJl2rFjh8aOHau/+7u/09SpU3Ou04T1tq4bANA7COEA0AvC/dtmzF84+KZSKa1du1bvv/++/vrXv2rnzp06/vjjdeaZZ2rmzJlKJBLB5dvrBTdBur6+XsuXL9crr7yiDRs2aOLEiTrllFM0ffp0TZgwQZFIJKeqHj5I9FDXDwDoeYRwAOgF+b3d5kDMSCSS8/NsNivf91VXV6dFixbpv//7v7Vu3TodddRROumkk3TsscdqypQpqqys1NChQ5VIJNTU1KTdu3dr3759eu+99/T222/r//7v/7Rx40adfPLJuvTSS3X66acHB1xGo9EWbS3SwdCdyWRa/BwA0PsI4QBQRHzf1549e7RmzRqtWbNGNTU1qqurU2Njow4cOKDXX39ds2fPVmlpqSorKzVhwgRNmTJF06dP14wZM5RIJHJaTAAAxYkQDgBFIr9anX+Apu/7qq6u1rp164LTTNgOB29COAAUv0hfbwAA4KD8AzDzayStzQs3/ebh0E1bCQAUP0olAFAkzGhB13WDSnj+gZTh7zOZTIvTJEI4APQHVMIBoIjkTyzJ/zq8gE9rLSf54woBAMWJSjgAFInwbHBTFZc+WsAnvz0lfw55eOVLAjgAFDcq4QBQRNpaor6179taph4AUPyohANAP0KFGwAGBkI4AAAAUGCEcAAAAKDACOEAAABAgRHCAQAAgAIjhAMAAAAFRggHAAAACowQDgAAABQYIRwAAAAoMEI4AAAAUGCEcAAAAKDACOEAAABAgUX6egMAAACAgcT3ffm+f8jTCeEAAABASGsBujM/9zxPruvKsqycy7iuG3xPCAcAAAB0MDznV7Fd15XneTnnCX8vHQzY4dPM5R3HCU6zLCvne0I4AAAA+i0TmsPBubVQ3FpwbqttJFzBDn9t2LYt2849tNKc71CXDV+GEA4AAICCay0Atxam27uc+bq16wp/7XmeLMsKgrG5nvygHD6P1HbgDp9mLtNaYG8LIRwAAAAFYarRJgDnV6vDPdP534evIz9w57d6tPW94zgtAnZnw3NPIYQDAACgIBoaGiQpqEDnV5PbCs7tVZ1bC9EdCdZ9Eb4NQjgAAAAKIpFIdLhnOnye/Mv0ZXjuKYRwAAAAFEQikejrTSgarJgJAAAAFBghHAAAACgwQjgAAABQYIRwAAAAoMAI4QAAAECBEcIBAACAAiOEAwAAAAVGCAcAAAAKjBAOAAAAFBghHAAAACgwQjgAAABQYIRwAAAAoMAI4QAAAECBEcIBAACAAiOEAwAAAAVGCAcAAAAKjBAOAAAAFBghHAAAACgwQjgAAABQYIRwAAAAoMAI4QAAAECBEcIBAACAAiOEAwAAAAVGCAcAAAAKjBAOAAAAFBghHAAAACgwQjgAAABQYIRwAAAAoMAI4QAAAECBEcIBAACAAiOEAwAAAAVGCAcAAAAKjBAOAAAAFBghHAAAACgwQjgAAABQYIRwAAAAoMAI4QAAAECBEcIBAACAAiOEAwAAAAVGCAcAAAAKjBAOAAAAFBghHAAAACgwQjgAFAnf93O+9zwv52vLsnLO47puwbYNANCzIn29AQCAgyzLkuu6sm1bvu/LsixJHwVwz/MUiUTk+75835fjOH28xQCArqISDgBFxLbt4H/f95XNZvXhhx8GoTybzUo6GMy3bNnSl5sKAOgGQjgAFBFT/Tb279+vRx55RE888YT2798vSdq8ebPuu+8+/e53v+uLTQQA9ADaUQCgSIRbUKSD1fDS0lINGTJEN910k+6//35t3bpVF154oTZv3qz58+f34dYCALqDSjgAFAlz4KVlWcpkMvJ9X7FYTGeffbaqq6u1fPlyJZNJvfPOOzrnnHN0zDHH9PUmAwC6iBAOdEL+9Aqgt0Sj0eDro48+WmeddZYSiYQcx1FlZaUuvfRSlZWV9eEWAh9h3wh0HiEcCDFTJ8zoN/PCYk73fT9nbBwvPOhp4XYU83UkEtHll1+u0aNHy/d9nXHGGTr99NNb9I8DvSG83zP7wY6cF8ChEcKBkPwRcZ7nKZvNBmHHtu3gZ1L7L0hAT/B9X1OnTtUll1yisrIyXXjhhRoxYgQhHAVhWVYwtceyrGA/KX1UiPA8L2ilMucFcGiWT4IAAmYes5nJbHp0m5qalEwm5bpu8KJjAhB/Quht5rnW2NioK664Qk8++aRisZgcx+H5h15njlEwM+olKZFIBP/MeaSPKuHMsAfaRwgHWpHNZuU4jrZt26bXX39d7733nrZu3aqmpqZgTjNQKGY37ThO8FF//uqZQG8zle5YLKahQ4dq9OjROvHEE3XmmWeqtLQ0KF7Yts2nNEAHEMKBPKYCXlNTo1//+teqqqrSaaedpqlTp6qqqkqxWCzno1fzD+gt4d10OHz7vs9H/ygY036XyWS0bds2vf/++3r11VcVi8V000035RwozPMSaB8hHAgxfw7Nzc362te+posvvlif+cxnNGTIkCB0h/+XWi6uAhSC+bSG5x96W/78enOa53lqbGzUo48+qmXLlumxxx5TPB7vo60E+h/eqgIh5oCjm2++WbNmzdLFF1+s0tLSnBeh8P8EIPSVSCTC8w8F0drzzLIsOY6jiooK3XTTTSopKdGjjz4afEoIoH2EcCDP6tWrtWTJEt1www3BaYQdAGjJfCr4i1/8Qm+++aa2bt1KCAc6iBAO5Fm4cKGuvfZalZSUSFJwsBEAoCXLslRWVqbjjz9eK1asoGgBdBAhHMizatUqnXrqqcG8W3OgJo1JULwAACAASURBVADgI+ZATcuyFIlEdPjhh2vTpk19vVlAv0EIB0I8z9OuXbt05JFHBt/T+w0ALZn9opkLXlJSoubm5j7eKqD/IIQDIabybVbFZN4tALQtvEhPJBJhHQWgEwjhQEj+PGYAwKGZogVL1gOdw18LEELwBoCOM/tME8RbmykOoHWEcAAAAKDACOEAAABAgRHCAQAAgAIjhAMAAAAFRggHAPQZljgHMFhF+noDAKA3hSc2mP/zpzeEf96a8M9am/6QP1s+//e1NTUi/zzmNPN7wucx1x3+Wf62tXZa/uXzLxteETZ/G1u77vD1mK/NdYS3UZJc15XjOC1+Hr5Oc9+FbzsADAZUwgEMWPmzi/MDrud5Oec158kPxIYJ8G2F9vD1hoNne+cPX7e5fFuBPf9n+W8sWgvZ4duZf55wsA9fR/hf/n0Zvk2u6+pQwiG7tdvvOM4hLw8AAxUhHMCAFA6eJijmB1jbtuW6bs5pruvmrJSaHzRNkMxms0HIdRxH2Ww2uD7HcXIq4uZy4RBvrjsc1M3p5rL5YT68Dfnf519f+Ge2befc1vzfm8+cLxy2898EmNsernyb7XZdN7hfwm+A2grctKQAGIxoRwEwINm2raamJqXTaQ0bNkySckKgCc2O4+SE2PzvTbU2lUopm81qyJAhwfUnk0k1NTUFYbS0tFSRSCQIr57nKRKJBEF09+7dqqysDL43l8uvbBvh7c1/U+A4Tk7ADwd2U7E2byhSqZQsy1Imk1E2m1VFRUXw+7PZrJqamlRRUSHbtpXJZILbEH4zkB/ezX2VSqWC25FMJjV06NCc7d63b5/S6XRwvw4bNix4bBKJRHBfEsQBDDaEcAAD1qJFi7Rlyxb9/d//fYs+7XCIlXKry/nh1rZtLV68WLt27dKXvvSlINy+9NJL+u1vf6uJEydKkhKJhL75zW/qsMMOa7V144c//KF++MMfatSoUTlV8nCFOn97wuHXhOFwH3Y4nEcikRb96QcOHNCLL76o448/Xk888YRqa2v1y1/+UsOHD5fjOHrmmWf0xhtv6KabbtL48eNbBOJdu3Zp9erVOu2003Iq22b73nzzTW3dulVTp07VE088oXvvvTf4uWVZuuuuu5RMJjVkyBC5rqtTTjlFF1xwgf785z/rwIEDuuiii3LucwAYLGhHATBg1dXVac2aNZJyl9dOp9Nas2aNNmzYkNPzvGXLFr399tuqr68PrmP//v1atWqVNmzYoM2bN+dUr7du3Srf93XFFVfoC1/4gt59910tWLBAvu8rmUxqzZo1WrVqlZLJpCzL0rJly5TJZOR5nnbt2qW33npLdXV1chxHzc3NamxsVF1dndatW6d0Oi3pYLV648aNWr16ddBik8lktG7dOtXW1gZvFPbs2aNt27Zp3bp1Oe0zNTU1Wrt2rQ4//HC99dZbWr9+vV5//fXguh9//HFt2rRJzc3N8n1fH374oVavXq2mpiZJ0sqVKzVv3jw1NjbKtm1t2bJF77zzjvbs2SPpYEjfsmWLdu7cqXfffbdFH/4HH3ygM844Q1/+8pf1mc98Ro8++qi2bt2qU089VY8++qi2b99+yINiAWCgohIOYMAyrSQmgJsWlDvvvFObNm1SMpnU0Ucfrdtvv10PP/yw3n77bQ0fPlzvv/++fvzjH8u2bV111VWaNWuWVq5cqXPPPTcnMDqOo5EjR2ratGlqbGxUJpPRsGHDVF9fr5/97GfKZDI6cOCAIpGI7r777qB3/I9//KMee+wxjRs3TkuXLtXNN9+sdDqtJ598Mqhen3/++brmmmv0+OOP69lnn1VFRYXGjx+vH/7wh7r//vu1bt067dmzRyeddJK+8Y1v6Mc//rHefvttjRs3TnPmzAlaQp5//nnNnDkzaP34xCc+oSVLluiCCy5QXV2d9u7dqxNOOEGS9Prrr+uOO+7Q1KlTlU6n9cADD+jVV1/V0qVLgzcUCxYs0OGHH661a9fqqaeeCsK2eWOSP43Ftm1NmDBBM2bM0IoVK2RZlkpKSlRWVqazzz5bzz33nK655pqc3nIAGAwI4QAGJNd1FYvFlMlkgvaRSCSimpoavfPOO0GAPPbYY/XZz35WY8eO1fnnn6+SkhI98sgjWrVqlRYuXKjvfOc7uuSSS/Qv//IvamxszBnDl8lk9Nhjj+n555+X67oaO3asjj/+eDU1Nem0007Txz72MTU1Nemee+7Rpk2bctpbrr/+elVXV+upp57S66+/rmOOOUbpdFpPPfWUFi9erBdeeEH19fW6++679dprr2no0KH66U9/qvXr12vJkiW6++67VVFRoa985Ss69dRTtXbtWv3rv/6rZs6cmdNSsnjxYl144YWSDr5pmDRpkmpqarR582bNnTtXl1xyidauXSvXdXX55ZfrN7/5jSZNmqSf/OQnev755/W5z31OTU1NOumkk/SnP/1JP//5z1VWVqZvfetbWr16dXCbzP0h5Y4x3Llzpz7/+c8rkUgonU7r6quvVnl5uRzH0cc+9jH96le/0nXXXdfqCEcAGMgI4QAGJMdxgl7r8MGWNTU1mjBhghKJhCzL0rHHHqva2lrFYjH913/9l/bv36+VK1dq+vTp+uCDD3TSSSdJksaPH6/NmzfnVMKj0ai+/OUv64EHHlBjY6MeffRRXXvttXr88cdVX1+vuXPnqr6+Xlu2bAneCJjLvfbaa1q0aJFWrVql6dOny7IsTZ06VbZtq6SkRLZta9u2bSopKdGoUaMkSTfeeKPeeustbdmyRU8++aR839fRRx8t13VVVVWlkSNHtmjtaGxszDkQs7KyUiNGjNA777yj1157Tf/2b/+mtWvXas+ePWpsbNSCBQuC+6y5uTm4H7PZrCZNmqTf/e538jxPa9euVTqdzum1D9/P5v/Ro0fr7rvv1vHHH68dO3bou9/9rv74xz/q05/+tA4//HDt37+/zTnqADCQ8fkfgAErXLU200OmTZumbdu2ad++fdqzZ4/ee+89RSIRLVq0SKeeeqr+8R//UePGjVMmk9H06dP1yiuvyPd9bd68OejtNj3X4XGG8XhcsVhMvu9rxYoVWrZsmS644ALdcMMNisViQZBNp9N67rnnNGrUKP393/+9qqurlU6nWx3hV1VVJdu2tXnzZjU0NOj2229XVVWVjjzySH31q1/VjTfeqGHDhumwww6T4zgtJrtIUmVlpZqamoKQnEgkdMQRR+i3v/2tTj/9dJWWlsq2bZWXl2vUqFE677zz9L3vfU9Tp07V5MmTg23Zu3evvvvd7+ozn/mMrrjiCo0cOTJo75GUcxCquU/Cc9Oj0aji8XgwtUWSPvzwQ1VWVgaXB4DBhEo4gAHJzKueO3eu5s+fL8dxNGHCBC1atEgnnHCCPv/5zyuTyeiqq67S7Nmz9dprr+nee++V4zgqLy/X/v37deONN+ob3/iGnn76aSWTSZ1zzjmSckfqzZs3Ty+++KJisZiOPPJI/fKXv1QkEtHWrVt15513yvd9VVRUqLGxUdFoVI7jaMyYMXriiSc0f/58TZgwQc3NzUGgz2QyQYgtKyvT9773PX3lK1+R4zj6m7/5G02bNk3HHHOMrr/+ejU1NWn27NkaMWJEixnjvu8rm83q1FNPVU1NjY466qgg6B933HG6//77deuttwZhORaL6aGHHtIPfvADlZaWqqqqSpdddpl27NihpUuXasGCBTrttNP03e9+V2PHjpXjOFq/fr3Ky8uD+3rp0qWaMmVK0Bu+Zs0a1dXV6aKLLlI8HtfQoUN18cUX69xzz1U2m9Urr7yiM844Iye8A8BgYfkckg7k+PSnP63f//73isfjfb0p6AFmprbpXTbV5qampqCCbarb+/btU1VVVU4gdF1XDQ0NGjZsWIsFalproTBh2nVd1dfXa+TIkTnVadM/vXfvXlVUVCgSiQSV4fAS7+EpLMlkUp7nqaSkJAjNjY2NikQiKi0tDX53Op1WLBaTdPAgVMdx9Pbbb+v3v/+9br31ViUSiRaBNzzq0AT35uZmlZaWBqE9nU4HB1nu27dPZWVlikQiLVbpDM8wD1+3OU947ng2m9Xs2bP1P//zPxo9ejTtKAPACy+8oFWrVul73/teX28K0C9QCQcwYJnQHZ5mYphAKx0MiJFIRIcddliLEOk4jiorK3MOqgwH2fzwaC5rJqdIymnNMIG3qqpKnuflBOLwXPDwG4fwG0KzDeXl5S1CazQazbmtlmVp0qRJmjFjhrZv366JEye2uoJneNZ4NBpVNBoNrtNUyc3vraysDN5I5M8qD9/f4Tnp+TPQbdvWkiVLdP311wcz0wFgsCGEAxiwwkum5wuf1lqIDl/enCccVsNftyb/9NbO3177RX54bet62vqdphXm/PPPVzQabRGaD7X9+T/PX56+tcu2dnpr2+/7viZNmqSPf/zjh/zdADCQEcIBYICyLEvZbFZVVVWSlDOhpS/5vq9x48ZJyv2UAAAGk77fGwMAepwJtqbn3BzwaVpJ+pJt28pms0EAD/eOA8BgQQgHgAEov+0lGo0Gc9P7mud5wZuD/DnuADBY0I4CAANUONiG53f3tXALipkMUwxtMgBQSIRwABigzKhD83/+YkB9pbUDXGlJATDYEMIBYAAzFeZiCeBGW5NVAGCwYK8HAAAAFBghHAAAACgwQjgAAABQYIRwAAAAoMAI4QAAAECBEcKBPGVlZdq3b5983w/+GSwoAmAwC+8DPc/L2U+mUiklEomiWJUV6A8I4UCI7/saO3asVq1aFcwwtiwrWFAkPNOYQA5gMMjf17mu22Kuu+/72rlzp6qqqpj3DnQQIRwIsSxL5513nubOnatsNhuEb8dx5Lpu8GJkVh7Mr5QDwEBk9nWWZclxnGAfaP41NTXp/fff19FHH80+EeggQjiQ5+yzz9b69eu1ePHinKDtOE6Lyk94xT8AGIjyVzYNt6B4nifP87Rw4UJ5nqdp06axTwQ6iBAOhPi+r9LSUt1777361a9+pZUrV0pqubofAAwmJnybwoQJ5rZt6+WXX9ajjz6qG264QYlEoq83Feg3COFAHsuydOKJJ+rLX/6y7rjjDr3xxhuSFBxsZKo/BHMAg4Gpdtv2wchg9n3Nzc164okndN999+nee+/V1KlTg4AOoH2WT/MWkMO8iHiep7/85S+6++67NXnyZJ111lkaP368hgwZ0tebiEHMVCKBQjL7Rdd1lUwmtXr1av3pT3+SJN1xxx064ogjcoI6gPYRwoE85oXE9Dw2NjZqyZIlWr58uXbs2KFkMpnTK07VB4X0m9/8RpdeeinPOxSUKUzYtq2SkhIdfvjh+vjHP67jjjsuaEHxfT/Yd/L8BNpHCAdaEW43MS8+HJSJvmQC0JQpU7R27VpJHKuAwnBdV47jBJ/AhAN5+DRJBHCgE/jcCAgxBx+Fqzmu68p13ZzQHR5RCPS2/AWjWltICugtjuPkrI1g9ocGi/MAXUMIB0JMuDZfSwdfgCKRSIsFKqj4oFDMG0ATdvIPkAN6m3numTnh4SkpjuME56M4AXQcIRwIya8wmv/NR6/5oYcXGxRC+PiDcPihAolC8H1fkUgkeO619rwL7zd5cwi0z/d9QjgQ1lqft+d5OZUeDshEoYWfl+EFUoC+0Fa1O/wcBXBo2WxWkb7eCKAYhQ/KDH/d1vmA3haugEtq9ZMZoDccah+Yf572zgdASqfTSqfThHAA6E84IBMA+iff9+W6rjKZDO0oAAAAQCH4vq90Oi3P8xSJRAjhANBfhBeJAgD0H67rKpVKKZVKybZtRaNRQjgAAADQW1zXDfrAY7GYYrHYwfHHfb1hAIDOoRIOAP2D53lKp9PKZrNyHEfxeDyYtU8lHAD6kfwpKQCA4uR5nrLZrDKZjCzLUiKRCAK4xGI9ANDvUAkHgOJmAnhTU5Ns21YsFgsWvTII4QDQT+Sv6AoAKD6+7yubzSqZTMpxHEWjUUUiLTvACeEA0I8QwgGgeJkAnslk5HmeYrHYwUkodsvITQgHAAAAusksxpNOp+W6rqLRaJsBXBLTUQCgv+GgTAAoPr7vK5lMBgG8pKTkkPtrQjgA9CMEcAAoPtlsNlgNMxqNKhaLtbu/ph0FAPoJM54wm83SFw4ARcJ1XWUyGaXTaTmOEyzG054BHcJ5kQIAAEBv8X1fmUxG2WxWlmXlLMbTngEdwl3X7etNAIAeRTsKABQHE8DT6bR831dJSUmHA7g0gEO4OUIVAAAA6EnhWeC2bSsej7dYjKc9AzKEmzvG87y+3hQA6FHMCQeAvmVyZjqdlqR2RxG2ZcCFcN/35XleMCQdAAYKAjgA9K1wAM9kMsFy9J0N4NIADeHZbDZokAeAgcLs03zfDyalAAAKw7Q6m1ngiUSiw5NQWjOgQrjneUEAt21bkQhj0AEAANB9nufltKDEYrEuVcCNARfCXdeV7/uKRqNdfmcCAMWMCjgAFI6pgJtRhJFIpEs94PkGTAg3AdzzvKAK3t07BwCKTTiA03IHAL3PHGuYSqVkWZYikUiPdFsMiH4N0wfuuq4sywrenfACBWAgohIOAIVjDsK0bVulpaU9VuTt9yE8/BGBJDmO06lB6QAAAEA+3/eVTCaDYw1ND3hPZcx+3a+RP47QtKEQwAEAANBVJl+m02lZlqVYLKZoNNqjGbPfh3DXdeW6bhDAqYIDGOhYAwEAeo/Jl2Y5erMYT0/ny34dws3BmKYPnAAOYDCgJxwAek94MZ5EItErAVzqxyHcdV1ls1n5vk8fOAAAALrNVMA9z+vVAC710wMzzaI8nucFo2KYhgIAAICuMMcZplIpeZ4nx3G6tRpmR/S7Sri5k0wV3LZtquAAAADoMrMaZjqdDiah9Paij/0qhIcDuMQ4QgCDi+kFpyccAHqO7/vKZDJKJpOKxWKKx+M9shhPe/pdCM9fFZOl6QEMBiZ4W5bFdBQA6CG+7+csxlOICrjRb3rCw+MIJdEHDmBQogoOAD3DzAI3Cz7G4/GCdlj0i0p4uA3FVMEdx+mxZUMBAAAweJgx16lUKpgFnkgkClrc7Rcp1vTqmCo4feAABiPLsuT7PtVwAOgm13XV3Nws3/cVj8cVj8cLvg1F345iKuDZbDZYlIel6QEMNuF9HiEcALrOTEGRpEQi0We5sqhDONNQAAAA0BPCy9F7nhcsR99X7c1F3Y4SnobiOE5wMCYADGZUwgGgc0xhN51Oy3VdOY6jRCLRp7myaBOt7/vKZrNyXTdoQ6EKDmAw830/6AsHAHScCeCpVEqRSETxeLzPM2VRhnBTATfTUMwklL6+swCgrxHAAaBzzCjCdDqteDxe0Fngh1KUPeGmCm6WpedATAD4CEEcADrGVMCz2WzOYjzFkCuLrhJuenZMG4pZFbMY7iwA6Eu0ogBAx5mibjqdDkYRFlOmLKoQHj5q1fd9RSIRquAAkIcgDgCHZjJlU1OTLMtSLBZTNBotqkxZVO0opgJuAjirYgIAAKAzwhVwScEowmIK4FIRVcLNPPBwGwoBHABa8jyvrzcBAIpWNpsNVlo3FfBizJRFsUX501Bs22YaCgAAADrFTELJZrPBLPBimITSmqJoRzEfG0gHV8WMxWJF+Y4FAIoBPeEA0JLneWpqapLruopEIn2+GE97+jyEmzYUUwHnQEwAaBsBHABaymazSqVSwXL0/aGg26dbZ9pQTB+44zhFNToGAAAAxc0UdDOZjCKRSFHNAj+UPg3hJoCbVTE5GBMA2kc1HAAO8n0/6AE3owj7QwCX+jCEm3ct4V7w/nCH9UfmBTv/fxSG7/sdegx4XAam8OOa/xh35jE3zyPHceR5Hs+XfiL8N9/W489j2Xvauo+787eI4mECuGlDKS0t7Vd5sk9CuGlDMX3g0Wi0X91p/Y3Z+bPaXt+wLKvFc7u15zrP/4HF/K2FH9f8v7+OPuYmdJt9J8+V4pf/+Le2/w3/DD2rvfvfnM5rYv9lhnokk0nZtq14PN7vjiss+IGZ4WXpJdEH3svC4duyLHmepw0bNmjLli19vWmDhrnv8782j4f5GgNPfhDIf/xd1+1wC57v+7JtW5lMRkuWLNGGDRuKduwWDgo/3vnfd/bxR+e1dv9PmzZNY8aM6VBhBMWrvyzG0x7LL/DbQDMP3MxvNEvTo3eEw7d5Ab/lllt04MABjRkzpq83b1DID+Fz587VZZddpmg02uJFAgNP/uN///3365vf/KYcx+nS45//xhrFK/9N2O7du/XXv/5Vf/M3fyPbtnkMe1n4/vd9XytWrNAFF1ygK664IliLhMegf8pkMkqn08pkMkokEv1iEkprCpp+TRXcNM+bKjh6V3h1PbMa6XXXXacTTzyxD7dq4Mv/6NO8EXrttdf0gx/8QCUlJez8B7DWWsAsy9LcuXP1gx/8QPF4vMOPf35fuQlw5jpRfMzfe/ixW7dunVzX1W233aZoNNqHWzfweZ7X4hOoefPmBV/zd9N/eZ6nVCol13UVj8f7bQCXCtgTbj46yGQywTQUVsXsfaaP1LZtpVKp4HTu997X1sedJpC3dqAWBo78dqPWelMPddBmvnDopi+8+Nm23aIAYnTl8UfnhD9pyP/7a+1vh/u/+JljYpLJpDzPC0YR9tcALhU4hLuuGxzdb0I4epd5o5PNZhWPx3OqA+h9+S+8ZkdvHhcei4EtXIlr7fFv7bxtXY/ZX5pPEfkYvfiZv/HWHv/WzoueZe7T8Juh8GNB8O5f8pejN6MI+7OCpODwNBTLspiGUmBmJVLzNTuewjLP83APYvh0iSrMQNVaFa616mhHA0H4OcP+s/iF//bN9/kHZxrsA3qeuX/Nm9b8yjh/Q/2HaWVOpVLBLPCB0NLV6z3hpg88k8nI9/3gQEye/AAAAGhPKpVSJpORZVlKJBIDZqBHr98KAjgAAAA6y/d9JZNJZbNZ2batWCw2oHJkr7ajhFfFNH2M9IEDAADgUAbKLPBD6dVE7LpuzsGYTEMBAADAoYQD+EDupOi1dhSzKuZAvvMAAADQs0wAT6fTKikp6fejCNvSK7fI9IGbxQqi0ShV8CIRnsaAvsPfwuDW2uPPc2JwaOtx5vHvW9z/xcN1XaXTaXmep0QiMeBaUMJ6vBJupqG4ritJwUzwgXoHAgAAoHtMfkylUsGijgNhFvih9Ggl3MwDN9NQCOAAAABoj+d5QQuKmYQykAO41MMhPDwNRTq4QMFA7OEBAABAz/B9X5lMRslkUpFIRPF4fMDMAj+UHkvI5mMEVsUEAABAR/i+r3Q6rUwmI9u2FY/HB3wF3OixEB7uAzfTUKiCAwAAoDXhAC4pqIAPlgJuj9T6TRuKmYYymO5AoLPMp0UYXJhMNLhZliXf93n8+wj73OJjjiM0s8BjsZgSiURfb1ZBdTuEh/vAbduW4ziDoo+nP+NFoG9x/w9uvAkb3Pj77zu+7/O3V0Sy2ayam5vl+34winCw6Va/iHkXk81m5ft+EMIBAACA1mSz2aAFJZFIDNoW5m6VrM2BmGaeIwdiAgAAoC2mBcV1XUUikWBBx8Goy7c6PA3F9IGzKiYAAADakk6nlc1mZVmWYrHYoM6NXQrh+W0oTEMBAABAe5LJpBzHCdpQBnMI73Q7ijm626yKafrAB/OdCABAR/BaicEuHo8Ha8kMdl0K4dlsVq7rBgGcCnhxCx8Rbv73PC/4Wfh8O3bs0N69ezVu3DhVVFTI8zw1NDRo27ZtKikp0fjx42VZljzP0wcffCBJGjt2rBKJhCzLCi4/evRoDR06lBecVpg3r+a+N6PLmpqatGvXrmDe/siRI1VaWqr6+nrt2rVLVVVVGjlypCzLUn19vfbu3StJisViOvzww5XJZLRt2zYdOHBAEyZMUElJCfd/kfN9X5s2bVJzc3PwNyNJe/fu1fbt2zV06FCNGTMmOP+aNWs0bdo0WZalTCajDz74QJMnTw6eU5K0Y8cOJRIJVVRUSJI2btyoTCaj0aNHq6KiQr7vq7GxUel0WlVVVdqyZYuampo0atQoDRs2TJKC51xpaanGjx/PPr4HmL/3/H2u+X/r1q3BqLaysjJVVlZKkurq6pTNZjVx4kRZlhXsZ/fs2aPRo0ersrJSlmWpsbFRdXV1qqio0KhRo5hSlie8vw2flr+PDD8+DQ0N2r59u2zb1oQJE3Kmd+zcuVNlZWUaMmRIL2/5wGOWo+f1qZMh3LShmCNaTQDnjux/bNsORqWZUL1q1So9/vjjGj58uOrr63X77bfrwIEDevLJJ5VKpbRz50599rOf1ezZs/W73/1ONTU1chxHU6ZM0cUXX6wdO3booYceUkVFhXbv3q077rhDZWVlfX1Ti1L4fpcO/m2tWLFC8+bNC15Av/jFLyoajWrOnDmqqqrSvn37dMkll+ioo47Sgw8+qPr6elVUVGjkyJH6+te/rv/7v//TwoULFY/Hlclk9L3vfY8XiCJlHvvFixfr6aef1tixY2Xbtq699lo5jqOHHnpIlmWprq5O3/zmNzV16lTt2bNHDz/8sO655x7Ztq1XX31V//Iv/6L58+cHf88HDhzQbbfdps9//vP69Kc/rRdffFGvvvqqhg0bpvLycl111VUqLS3VX//6V3mep+bmZi1ZskSVlZXat2+fvvOd76ipqUmPPPKIKisrtXnzZn3qU5/Seeedx36+h5i/ffN6atu2XNfVzTffrOrqaknSCSecoL/927/VwoUL9Ze//EWe56m6ulpXXHGFVqxYoQULFqi0tFR79uzRDTfcoPLycv3oRz/SiBEj1NDQoIsuukgnnXRSH9/S/sd80m9ZlhoaGjR37lw1NTWpublZw4cP19e//nVFo1Ft2LBBP/vZz3T11Vfr5JNP7uvN7ncI4B/pVHnDHIgpfbQqJh8n9F/hIGhZlhYvXqxZs2bpiiuu0OrVq7V8+XK988472rZtmy677DJ96UtfY4T1pAAAIABJREFU0rx581RbW6uHH35Y11xzjT73uc9p8eLF+vDDDzV37lyNHj1aV155pZqamrRgwYK+volFy/wdhSvia9euVXV1ta666ipdeeWVOuKII/Tss89q1KhR+upXv6pJkybpD3/4g1KplBYuXKgvfOELuvrqq3XRRRfpwIEDevHFF3XCCSfommuuUW1trZYsWdKXNxHtsCxLDz30kM444wx95Stf0TvvvKNdu3bpjTfe0LZt23TllVfq+OOP1/333y/f97Vs2TJVV1fLtm1t2LBB8+fP14oVK4LnkO/7uuuuu7R+/XrV19fL930999xz+tKXvqTLLrtMf/rTn7R//365rqutW7cqkUjo3nvv1Re+8AVdeeWVamho0JtvvqmlS5cqkUjosssu06WXXqpf/OIXzLbuBZZlBa+f27dv19q1a/W1r31NX/va1zR79mxJ0gMPPKDPfvazuu6663Tvvfdq69ateuGFFzR58mR99atfVXl5uV588UW9+OKLqq+v15VXXqlp06bpf//3f4NP1NA5prC4ZcsWrV+/XpdffrmuvfZaLViwQJs3b9aiRYv09a9/XevXr9e+ffv6enP7JQL4RzocwsNtKJZlcSDmAGA+0TBVtG984xu6+OKLtXPnTu3YsUNHHnmkNm7cqHHjxmncuHGaPHmyJOnNN99UdXW1jjjiCM2YMUOu66qxsVFLly7VCSecoDFjxmj27Nn64x//2Jc3r98wIaq2tlZvv/227rzzTq1cuVLZbFa1tbU688wzVVlZqQkTJqihoUG7du3SqlWr9MILL+i+++5TKpWS53mqq6vTMccco1GjRunkk0/WihUr+vqmoQ1mulR1dbVef/11rVmzRul0WpFIRG+99ZamT5+u0aNH64ILLtDLL78s27a1fPlynXXWWUomk/rDH/6go446SpWVlcEbuoULFyqbzercc88NQvODDz6o4447Tps2bZJt24rH49q7d68OHDigMWPG6LXXXtOJJ56ooUOHqr6+XqWlpbrwwgt16623asSIEdq3bx+fpvSw/FUzbdvW6tWrddhhh+nee+/VY489psbGRu3atUu7d+/WKaecoiOOOELjxo3TkiVLlEwmNW3aNFVWVuqUU05RTU2NVq5cqdNOO02jRo3Sscceq9ra2uB5gY4xf5PSwdfGo48+Wr/85S81ZswYlZaWqqGhQfF4XOPGjdP8+fN1zDHHUIREt3UoRYcDuO/7zAQfAFzXVSwWy5nzns1mtWHDBv3617/W+PHjtWPHDrmuq0QiEZwnFoupvr5eiURCrusGPXL79+9XY2OjysrK5LquKioqgp5ltC485tP3fZWUlOjMM8/U5Zdfrp/97Gd6/vnng/NalqVEIqFUKqUPP/xQ55xzjs444wxNnTpVV199tZqbmyVJ0Wg06Ck9cOBAX900tMO88ZoyZYrWrl2rxx57TJWVlYpEIkqn0yotLZXneSorK1M6ndbu3buVSqU0fPhw/eUvf9GOHTt07rnnBte1du1avf766/r+978fTKwyv6Ourk4PPPCAhg0bFvydNjY2avz48fJ9Xw0NDfrVr36lUaNG6ZRTTpHrumpubtbLL7+sn//857r99tspuPQg87pp2lHCb8guuugiRSIR3X///aqvr1csFgvaI6qqqvThhx8Go93M/ri5uVl79+7V8OHDlclklEgkglUI0XHmPvU8L9iP2rat999/X9dff72uvPJKjRkzRjNmzAgmevBGB93Vbk+42UFkMpkgiA32kTIDgXmBDrdD1NbWavz48br33nt133336aGHHtJZZ52lHTt2yLIsua6rZDKp0aNHa9myZbJtW8lkUp7nqaSkRMOHD1dTU5Ns29aePXuCA4vQkrnfzd+Rbdu6/PLLddhhhymRSKimpkZvv/22otGoUqmUfN9XKpWSZVk67LDDdN9992ns2LHKZDL6j//4D+3du1clJSVKJpOSpH379qmkpKQvbyIOwfd97dmzR/fff7+eeeYZjRw5Uj/96U/1yiuvaOjQodq/f79s29bOnTtVXl6uTZs2BQfq/vu//7vi8bgefvhh7dixQ7/4xS9UWlqqVatW6f7779fixYu1du1azZo1S6lUSsccc4zmzp2rW2+9VYsWLdK0adNUUVERPF8efPBBNTQ06MYbb1Q8Hlc6ndbChQv10ksv6ac//alOOOGEvr67BizHceT7vk466SSdfPLJqqys1PDhw/Xzn/9cVVVVampqCvrGP/zwQ40cOTI4UNP3fe3fv1+JREIlJSXau3evIpGImpqaggPl0Tnh10Tf97V8+XL9+te/1oUXXqiLL7446OU3jxv3Mbqr3fKGGUeYzWaDRXn4CGZgyD9K/NFHH9WCBQvkeZ52796tMWPGaNSoUaqrq1NDQ4P+P3tnHhdV1f/xz+wwDJuAoggogiKSApILAmqWSy6Vj0tPapaZG7ZnWj1PLmmZLfaYmfXL1KfMNVs1zdxX0ERwVwgRVEDWgWGY5d7z+8PnXM9cBkREGMf7fr14zczlzp17v+ec7/me7/me7zl//jwIIejZsycyMjJQUFCA7OxsKBQKeHl5ISYmBikpKbBYLNi2bRv69OnTdA/nwNjLVmO1WvHZZ58hNTUVVqsVycnJ6NixI9q0aYNDhw6B53lcvHgRPj4+uHLlCqZMmQKz2YyLFy/Cw8MDrVq1gre3NzIyMmC1WrF9+3ZpYZaDQstfq9XCYrGgpKQEhBAYjUa4uroiOjoaJ0+ehNFoxJYtW5CQkIArV66gWbNm0Gq1mDt3Ll5//XUMGjQInp6eGDRoEB5//HHMnTsX//jHP9CxY0c88MAD8PPzw2uvvYb09HRwHAe9Xg9fX18kJycLhvW8efOEBZmBgYGQy+VIT0/H77//jqSkJMTGxkpe8AaC9YCzn2UyGX7//XcsXboUAJCTkwNvb294enrC398faWlpyM3NxeXLl9G9e3e4urri77//BsdxOHLkCMLDwxEVFYXff/8dFosFZ8+eFcpS4ibUgLaHvTLJz8/HihUr8NhjjwmL5KmRXtu1JCRuC1ILPM8Ts9lMKioqSEVFBTGZTITjuNq+IuGA8DwvvOc4jsyYMYMcO3ZM+EzJysoi/fr1I1FRUeTJJ58klZWVxGAwkH//+9+kR48epGvXruSvv/4iPM+TLVu2kA4dOpCEhASyYsUKYrFYSHFxMXniiSfIAw88QJ577rlGf857hfj4eGI2m4Vy4Xme8DxPtm7dShITE0nnzp3Jyy+/TMxmMyksLCQjRowgPXv2JMOHDydZWVmEEELefPNN0rlzZ9KrVy/yxx9/EEIISUlJIQMGDCCRkZFk5syZTfV4ErcgICBA0KUHDhwgkZGRpGvXruT5558nJSUlpKysjMycOZNER0eT3r17k2vXrpHvv/+e7N69m1itVsJxHOF5nuTn55OYmBhCCBGOEULIggULyPr16wnP8yQlJYV06tSJdOvWjbzyyiuksrKSjBkzhpSXl5NLly6RVq1aEXd3d+Lm5kbc3NzIF198QaZPn07c3NyITqcj7u7upEePHqSysrIpReY0nD9/nkyZMoVYrVbhGM/zgu7s3r07eeSRR0hycjLheZ7s2rWLdO/enXTu3Jls3LiREELI2bNnyZAhQ0hiYiIZM2YMKSkpITzPk2nTppEuXbqQQYMGkdOnTzfVIzo033zzDfnvf/9ro3vpK8/zhOM4QTdv2LBBaBdubm6kffv2Nv3mm2++SXbu3NlkzyLhHMgIqXk4Z7VahVhwKRvKvQthPK88z2PWrFkYNWoUYmNjwfO84DEh/5v1oDGprKecxnsDN0MpOI6DwWAQ8hHLZDJYrVaYTCYhR7U0XVedhIQE7Nq1S8jjS70qMpkMRqMRMpkMGo1GOCaTyVBaWgoPDw/hMw0NUigU0Gg0Qhs1mUywWq3SYjoHpnXr1sjJyQFws81UVlZCp9MJZU4IgcFggJubGwghwqJN6o2jiL2rgG3GHZ7nwXEcTCaTcC29Xi/k8GfrHn3lOE7Q80Sacm9QLly4gMWLF+Pzzz8HYBuWRv6Xv12r1QreVplMBpPJBABC/0v+FypRVFQEX19fmxzxFRUVUKvVUKlUUrnZYeXKlVAqlRg7dqzdus+mjKWyBqrvr0HPlewhiTulxphwnuelbChODg0xooY4XazJLgai/2ONOqqYlEol3N3dbXKryuVyaLVaAFIaotpgU0PSz4QQIZaTdqxU1u7u7jZToDScgcqedgYqlQoajaZpHkqiztCy53neph0pFAohBlin0wnnuLi42Bhs4rrAHmfrFd3LgRoUcrlcyKhC/rfeR9xO2WuLjRSJhkGsX+lnd3d3ADfLgBAi6GMWuVyOZs2aCdeixiHV01JZ1Q92jQ4djFKHk1wuF/pL+llC4k6xW4vI/7Kh0MUf1ACXGrbzIDb+WEOOHqer8GnnzXq2xSvD2c1/KLVMstz3UAVO5Sg2rmjHSv8n3lxJHFMOQOgY2E5ZwjGhZUrLlTVyxZmnxDNKYgOcOkrEx2WyG7tq0sExq8NpHRMfE7dhKdd0wyMuS3sypuXAli01DFnjnX2VdG/DQnUolTGrc1kvuYTEnVDNCKejPppDmk6BSQa4c0HDFwBbg5D+jw6+2Ok51lBkPQNyuRwWiwVKpdLGCJAMwZqxWCzCoEfcvugMBe14Adh0vmLkcjnMZrNNJ8160SUcD+rxprDGOHV+iAdctGzF5UrrDzXE6LVoqjXANjc1bbtsaAN7H/QeZDKZ8H1J/zccbDlR54e9wTTV0bReABBS6NF6QT+zGT2kRYMNg0qlEtocx3GwWq0AbhrnkiEu0RBUC0ehYShUOUhx4M4JG/PJxoQDtnGK9H/sOWy8HO38ac5x1viT6k3NiGN7gZudM/0fa1jRAQ7r/WLPoSEobLlIhpPjQg0sNuyIthexd5qdIgdsDWLWILMXK07PYafOWeObPc5+hzXepXCUhsWezNk2TcuHNbApbIgE+z32euJylaiOvZlEFvGghzqs6DFxrLiERH2xMcLZKXDa8UuG1L2POGaUpaZOuCYlZS8UQmyoS4qpdmpS4PbKorZj9s6xd10Jx4I1uO21s1u1SRaxcW3vXHsGWW11xN7vS3WqYbmVDqWIP4vrze2WrYR9+dRWzyUZS9xNbGoXnXIhhEClUklhKBISEhISEhISEhJ3AcEIZw1waVt6CQkJCQkJCQkJibuHHLBNRwjcTGslGeESEhISEhISEhISDY+cxoHTlb90MaZkgEtISEhISEhISEjcHeQ08TwgGeASEhISEhISEhISjYGc4zghL6m0K6bzwqY8k2g62Fy+EvcfUvu7v5Haf9MitT8JR0POLsaU4sAlJCQkJCQkJCQk7j5ymhNcyoYiISEhISEhISEh0TjI6Q59khdcQkJCQkJCQkJConGQq1QqaTGmhISEhISEhISERCMil8JQJCQkJCQkJCQkJBoXuZQNxblhV4Ozq/Jpfnj2HGnl+N2FlbdMJqsmf/F7CeeAZsSoqb3ZqwcS9z7idk3LGbAtc0n/3h1YefI8D57n7bY5Sf4STYlc8oI7N9TYo4YfVTQymQwymQwcx9m8SjQ8dCMsWhYKhUL4TF/NZrPNMQnnwWq1Cu3NarVWC/+jx6Wydy6ovqW6lZYzzUTGDsZpggSJhoOVLV3zRgixeU/7PiltpERTIbnBnRyqdNjOgO6QSjsGsWdWouEghECpVILjOMEA5zhOkD8dINEykrwxzgP1fqpUKqGjVyqVMJvNQltkB2hS2TsXtD3L5XKhvBUKBSwWi2B0s4MvSf82LKxhzfZ3FotFOId1Pknyl2gKlE19AxJ3F6pgqJFHjykUChvvC2sESh6BhoPKUqFQCPKlxhg7+GE/SzgHtNMHYLMJGm1/dH8GOjiTjHDnoqbyF3tl6bkSDQs708hCZyLp/2o6T0KiMZA84fcBHMchPT3dJiaOGn/FxcXIz8+XvAB3EY7jkJycXG3ak+M45OTkwGg0CgMiyRBzPqqqqnDhwoVqYWE8z+PkyZM2A2QJ54IQgry8PBQUFFSLCed5HqdPn5aMv7sIz/O4ePEiqqqqBPnTEBSj0YjLly9Lzg+JJkUywp0c2rmnpqaiT58+2L17N6xWK6qqqvD9999jwoQJuHz5smCUS8qoYaHTnXv27MFTTz2FtLQ0EEJgMBjw0UcfYc6cOdDr9ZI3xkmxWq3gOA7Lli3D22+/jfz8fABAZmYmpk6dinXr1tl44yScC47jkJ+fj+nTp2PFihUwGo3gOA6HDh1C//79cejQIan87xJ01vHixYsYPHgwfvnlF5jNZlgsFvz222947LHHcObMGUjJKSSaEhmRXDD3BXq9Hm3atBHiUVUqFaxWK4YOHYpvv/0WSqXSZrGQRMNAm1dRURFCQ0PB8zyMRiN0Oh0sFgveeecdvPrqq5DJZNLUtBNCB7br1q3DpEmToFQqodfr4ebmBplMhr1796JLly5Cu5PK3rmg628mT56MdevWQaPRoKqqCgqFAi4uLsjOzoZWq60WniLRMPA8D5PJhG7duiEzM1OQL8dx6NSpE/bv3w+NRiPJX6LJkGqcE8DGGtNpbvHYysPDAx988AE4joPJZEJ5eTnc3NwwdepUYcdUe+MxaYx2a8Ty5zhO+B81qpo1a4akpCSYTCbwPI+ysjJ07NgRjz76qE22BHo99toSjk1dyj8uLg6JiYnQ6/UAAKPRiJEjR6Jt27Y21xG/SuXv+NjTvxS6I/Vzzz2HZs2aQa/Xw2KxgOM4zJkzBzqdzmZxvL3rStRObX2fTCaDq6sr5s2bB5lMhsrKSlRWVkImk+Gtt96Ci4tLrfKXkLjb3NNGuLjx8TwPjuOEP5p54H6AzW7CrvZmjYLRo0cjKioKSqUSKpUKiYmJiI+Pr3YtSfncPmw4D/WmsJ2CXC7HsGHD0K5dO8hkMri4uGDgwIHo2LGjNPtwj8MazbT8xQZZ69atMWjQIDRr1gwA0KpVKzz++ONwd3evlr9f4t5DnPpVnI+6e/fu6Nevn+B1jYyMxOjRo22+Jxndt49YzlT30s9U/z766KPo2bMn6A7hPXv2xNChQ6tdS5K/RGNzzxrh1OC2Wq0wm80wmUwwGo0wGo0wGAwoLy9HeXl5U99moyBOc8cqJGoUWCwWuLq6YvLkyQBurBD/z3/+AwA2gxixMcguIpOwDx3kyOVyQY7AzQ5ZLpfDarXigQcewIABAwAArq6umDZtWrX87fR77HtJ/o4NmweabUfsgAwA/vnPf6JVq1YghKBbt26Ii4sT/sca4uwrm8ZSwvFgU7/S92xZUp0sl8vx3nvvQS6XQy6XY+LEidDpdDbXEYdCSOV/a9g0kKzDicqS6mSVSoU5c+YIbfK9996z0ak1yV/SvRJ3G4dLUVhTaAVrKIpT6bEKj90I5X7xLrIplziOg1KphMVigVKpFAwClUoFAEhISEB8fDw6dOiA1q1bA4CNB5dubEDlrVAo7itZ1gel8kYzovVSoVDAbDZDpVIJslUqlVAoFBg2bBh++eUXTJo0Cf7+/gBuKns2JEU8kJLk77jQtsVuCmKxWIR1F7Tsvb29MX36dMycORNPPfUUvL29bcqV1Wk1GfISjgVt28CNRbg0JzzHcVAoFMIxAGjZsiWmTp2KQ4cOISEhAa6urjZ9mDhzDtXrUvnXDCsbKmu6IRJwsz8EgIiICAwbNgwymQwdO3aEWq2ulkJWLH9J90rcbRrVCBfHOtb2V9v32QVs7B/1MtBz7pfGw8qNbgajVCpx/fp1lJeXo7S0FMXFxUJaJl9fXwQHB+Pnn3+GRqOBm5sb3Nzc4OvrC29vbyFOUbyJgdQZ2Iets3RjDrVajWvXrqG8vBxFRUWoqKiA1WpFeXk5mjVrhqCgIGzZsgVqtRpubm7Q6XTw8/ODt7c3XFxcqoU0SMaY4yL2xtEyy83NRXl5OQoLC2E0GmE2m6HT6eDt7Q2r1YqtW7dCo9FAp9PB09MTPj4+8Pb2hkqlsglPYY17CceDOoaoAS6TyVBRUYHi4mKh/ZvNZlRVVSEgIADNmzfHhQsXkJ2dDRcXF7i7u6NZs2bw9vaGl5eXTT8mlf+tEctfoVCguLgYZWVlKCsrQ0lJCaxWKwwGA1q0aAGVSoU9e/ZArVbD1dUVOp0Ovr6+8PLygru7u42spb5P4m7ToNlRxAvK7H2292fPw003tGBDKlhDW1JItlBD7dy5c0hLS0NaWhqqqqqg1Wrh6uoKjUYjLEKhhjpww3tgMplswnl8fX0RExODLl26oFWrVgDsT9dJ3ITneZjNZpw5c0aQv0KhgKurK7RaLTQajbAAlpW/xWIR5G8wGGA2m9G6dWvExsaiU6dO8PX1rTb4lHA8eJ5HaWkpTp06hfT0dGRkZEClUsHV1RVubm5Qq9VQKBTCn9VqBSFECKWrqqpCZWUlOI5Dhw4d0LVrV3Ts2BFubm42OlHC8aDt8+rVq0hPT0daWhry8vKg0WiE9q9WqyGXywWvLO3vqqqqhPI3GAxQq9Xo0qULoqOjERYWZuOhlcrfPlT+f//9t6B79Xo9XFxcoNVq4eLiIsif3TSN53lB/kajEZWVlfD09ER0dDSioqIQFBQkZU2RuOs0mBHOGtI0LZP4GHDTe61UKqsZ1bUZ2PeTAmI9a+wx8eJLKpOKigps27YNq1evBiEEiYmJiI2NRdu2beHi4gIXFxdoNBphWpxN00SNR9oRlJeX4/z580hJScH+/fsRERGB8ePHIzY2FiqVyu69ARCm3Wv6/72EvWdg4+XZ/xFCUFpaig0bNuDnn3+Gu7s7evfujaioKAQEBAiy12g0ggHGxi9yHCcY4kajEWVlZTh58iRSUlKQnp6OHj16YNy4cQgPDxd+D6jeHmj4AxvGIFE/7MmQVZNsqAAhBFevXsXXX3+NgwcPIjg4GH379kV4eDj8/PyEwS9rhNPZEqonqZe0qqoKhYWFOHbsGA4fPoy8vDwMHjwYo0aNQosWLezeGxu+RI17auhJ1I+aZEzbPfVMAzf03okTJ7BixQqcO3cOsbGxiI+PR2hoKLy8vITyV6lUNk4l2jfStk/LPzc3F8nJydi/fz8IIRg3bhz69+8PT09P4d7E/QJrpFNP8L3Krfo+cQiq0WjEvn378M0336C4uBjx8fHo0aMHQkJCoNPpBN1L+z42TIWVPzXCMzMzkZKSgj179qBVq1Z45pln0KtXL7i6ugKoLn96Lda4v5f7PonG55ZGuD2vNV18Ig4fYUNDWMUgzn/Mnmfv+P0OlR3tUFnDmy2HkpISbN26FStWrECHDh2QlJSELl263HG+bzqlyvM8fvrpJ6xcuRIKhQIvvvgiYmNj4e7ubtPhi2c87Bmr9wrs/VPlynGczap7GvN79epVrF+/Hhs3bkS/fv0wceJEhIWF2dT/+kBjGktKSrBx40asXr0aISEhmD59OiIjI4Uc0/T+2Dj+e13+TQ0bF0rlx8aY0rhTg8GAixcv4osvvsChQ4cwceJEPPnkk2jevHmDlX9mZia+++47/Pzzzxg0aBCefvpptGnTBi4uLjbT5LT8a1pYLVF3xAYfbWe0HdG1Nnq9Hmlpafj4449hNBoxZcoUDB48GC4uLjbXqc/v0/JMSUnBypUrcebMGYwZMwaPPfYYfHx8bMIu2N9yBmNQ/CzijF90BrG0tBQHDhzA0qVL4ePjg6SkJMTHx99x38e2q23btmHlypUoKyvDlClTkJiYCA8PDyiVymp9n7iesAN1CYnakHEcR2qKybYXn11TzLY4Pps1wMVGt0TtsA2bvqcN3Gq1Ijs7G3/88QeOHz+O4OBg/POf/0S7du2E79BXe6P2uvw2a4hQr93hw4exfv16qFQq9OjRA/369YOPj4+NJ07sOb4XlRD77GxnTA0js9mMs2fPYtu2bcjKykLnzp0xatQo+Pn5CddgjeDbrfP2PO5WqxXbtm3D77//Di8vL/Tq1Qt9+vQRvDM1ee7vRfk3NWz5s5/pwNRsNuPIkSPYuXMnioqK0K9fPwwbNkxYfAfYttvbLX+2I6ffLy8vx/r163Hs2DEEBQWhb9++6Nq1qxA7TmcbqQFG7/teNMKaGnvlT18JIaioqMCff/6JAwcOgOM4jBw5EnFxcTZt7U4GYbT8afkRQpCVlYW1a9ciOzsbXbp0Qb9+/YTBPtXP9L3YM36vIe772OfhOA55eXnYsWMHUlJS4OHhgTFjxiAyMrKaU6+h+j6e53HixAmsWbMGJpMJDz74IPr164eAgACbPoLaOffyAEiiaZCZTCbChozYM8ZZQ1ocOiJlb2h4qCJmw0/kcjnMZjPWr1+P5ORkdOrUCY888gjatGljowDYmYj6KAPW08526tQASU1Nxe7du5Gbm4sRI0YgISFBUFZ0NblYOd1rsFP6rPyvX7+O77//HpmZmXjwwQfRp08ftGrVykbmbJgKcPtGGDXCWa8WvY5er8fRo0exa9cuVFZW4umnn0aXLl0EWbNZWu7UG3s/Q0N7aDugMjx37hy+/fZbmEwmPPTQQ+jZsyeaNWtmI2fWgKOfbwfa9llPLL1eXl4eDh48iIMHD8Lf3x9jxowRjAEANp7R+v7+/Q6r+9jUrzzPY//+/diwYQP8/f3x8MMPIzo6Gi4uLtVmgu/EEKMGNYVej+d5XLp0Cbt378bJkyfRtWtXjBo1ChqNRqh/4g3X7sWyF8/wABCcIFu2bMGff/6Jdu3a4eGHH0Z4eHg1nXen8hen+2U98KdPn8auXbuQmZmJAQMGYODAgUI9cZa+T6LxkZWUlBDWoLZnXNtrzPdiA79XYMMLKPn5+UhKSkJQUJAQ9qBWq6sZWg0VEywObaBYLBZYLBakp6dj8eLFiIqKwksvvQStVlstHvFerCP2ZiEA4PLly3jttdfQrVs3jBgxAm3btq1m6DakF0rcmbKD5IqKChyx84OmAAAgAElEQVQ5cgTffPMNhg8fjhEjRtiEpbDfk7g9xOVPO9Tt27djxYoVePLJJ5GYmCjMfLDnNYQXTOyJZX+DhkLk5+fjp59+wq5duzB37lxERETY5DK+0yn5+xl7M1EVFRVYtmwZjh49ildeeQWdOnWCh4cHADS47rVX/hSTyQSlUonMzEysWLECWVlZWLZsGXx9fW0GDvdy+duTf1FREf71r3/BaDTipZdeQocOHaDVahu97zObzeB5HmfPnsXixYvh4+ODuXPnwsPDQ8hIVl/ni8R9jNlsJhaLhVgsFmK1WgnHcYTjOMLzPOF5nkg0DVT2FouFHDlyhDz66KPk66+/JhaLpdp5tNzYY+zn24Utf6vVKtwHi9lsJkajkbz55ptk8uTJJCcnh1itVps6cyf30NTQe6+qqiJbtmwhXbp0Ib/88osgD/Y8+ic+Vl/ob7DXEcvfZDKRy5cvk6eeeorMnTuX6PX6ar8ptd/6Q2VXUVFBvvrqKzJs2DCSmppaTaYWi0VoLxRxO7hd6PfpK9sO6b1ZLBZy8OBBEhMTQ/773/+SysrKajpAKv/6wcouLy+PvPHGG+Tll18mhYWF1c61V/7iz7f72/T7tM2L9QnV9+vXrydxcXFk9+7d5H8z2jbXuVeh987zPDl9+jQZO3YsWbRoETGbzdXOpfJnv9tQfR+Vv7g9WywWwvM8+fjjj8nIkSPJ6dOnnarvk2hcGjRFoUTDQBhvyE8//YQtW7Zg3LhxSExMrHW6m4hG7+LPt/P7hNhuHiP2+NFXg8GAtWvX4vDhw5g+fTqio6Pt3pu953NE2OfV6/VYs2YNUlNTMXPmTISEhNQa79sQz0WvIV5sV5P8i4qK8Pnnn+PatWt47bXXEBoaKlzrXpR/U8DKg32fnZ2Nzz//HFVVVXjrrbeEzZUas/zFs0vitp+dnY1FixYhKCgIEyZMgK+vr8317N3Pre6zrs9xO9cRy8zed+3pr5qe4W7Btq20tDT85z//QUxMDJ555hm4u7vXel8NVf4UcViaPR1w+PBhrFq1Cv369cPw4cOrrQOpT/k3Jezz7dmzB9999x0GDx6MIUOGQK1WC+cA1fs+9lhD9X3se7H8LRYLfvnlF2zbtg3jx49HfHy8cB0pHFCirijmzJkzp6lv4n6FbdDiBmuxWLBs2TIcO3YMU6dORdeuXavtBipu4Lf6XFfYa4vfi19pXludToclS5bAw8MDISEh1WKja3vWpoLt8MT3ZDKZsHjxYuj1erzyyisIDAystkmUmIZ4Jnsyrk3+Wq0WcXFxMBqNWLNmDQIDA9GiRYtqHQdr3DXElK0zUFv5Z2RkYOnSpQgLC8OMGTPg4eFht0xY7kb529tKm/19Ly8vxMXF4fjx49i3bx9iYmKE/QDo+ayBQmOO62pks+/Z+iS+35q+K/bx2Gv/7DXtnX83DBq2PYjvg+d57Ny5E//3f/+H4cOH48knn6y2u+XdLH/2+vYyi7GvrVu3RlhYGDZu3IjMzEx07drVJs0v+4y3W/53E7FuovcH3FiT8/3332Pz5s2YOHEiHnroIcEAp+fZ6+vEdao+3E7fp1Ao0KFDB7Ro0QKffvopOI5Dx44dq4VkUp3rSH2fhOMgGeFNCFWKrMFE434/+eQTpKam4t133xWMWkdtvHK5HK1bt0ZkZCS+/PJL+Pn5ITg42G6MdFN4t2pDHENJO+GkpCSo1Wq88soraNGihUN0XDWhUCgQEhICtVqN1atXo1u3bjZeO/be2ZX89zusbFjjr7KyEjNnzkSvXr0EAwxwnDorxsXFBZ06dcKpU6ewYcMGDBkyxK5HkPWs1gQ7SKP6iF0kzg6u6UwNO2tDf4ciTu1pb1DB6gTxb7PHGxKZTGaTepKFrrd44YUXkJCQYLODqaMhk8ng5eWF2NhYfPvtt7hw4YLgkRUbfXUp/8ZCLH+271uzZg127NiB+fPnIyIiwqHz3svlcvj7+yMuLg7Lly8HIQQREREAavbYSws2JVik2tBE0AbK5vmlGxxt3LgRZ86cwerVq9GyZUubDs4RIYRAo9HggQcewJQpU7B8+XJcuHBB6HRZZcRuydyUsEYBVYxWqxUWiwUffPABLBYL5s+fDx8fH6HzclQIIdBqtRgyZAh69+6NV199FXq93ub5qCFDN8m63xFPOVNj0GAwYNKkSejcuTPGjh0LrVYLAA7d/gDA29sbb7zxBlxdXfHyyy/DaDQCqL5Ik02laA820xIAYbGfuP6z7YaGS4i/C9zMNkGzR7DU5Fm2Wq3CcXsZX+4UWuZKpdJmTwQAuHLlCpYvX45nn30WsbGxwj4Njlz+CoUC/v7+WLVqFc6cOYOVK1faeLxvp/wbA1qWVLbUIJfJZNi/fz927tyJ999/H0FBQcI+DQ1Z/g2NSqVCUFAQ5s+fj59++gn79+8HYGt807JwhAGQhGMhecKbELF3GAAOHDiArVu34vXXX7eJ73RkTyw75UYHDStWrEBsbCzc3NwcNnUW6/mWyW6kYFy3bh2ys7Px0Ucf2XRYjuw9Zo2IyMhI5OTkYP369ejWrRtcXFxsNr2g50tUL//S0lIsWLAArVq1wmuvvVYtRaSjyo2d6u7fvz92796NzMxMREREQKVSVRvE1/YcrMFWWlqK9PR0XLt2DVevXkVhYSHUarWQmYKez37PXp5zcWga+1v23tubnbjVfd8OYs8kvfdr165h5syZGDJkCAYNGmSzJsMRHAe3gud5dO3aFZs2bYKLiwuCgoLs6i1HqMfiUBTgRgrQL7/8EhMnTkTHjh1tHFSOcM81QeuPTqdD8+bN8d133yE8PBxeXl52640jP4tE4yMZ4U0IOz0ok8lQVFSEDz/8EE899RRiYmJqjAd0NNhpaplMhtDQUCGndt++faFWq20UqiPFxVEvHQCkpqZi27ZtmDp1Kvz9/WuMB3Q02Dokl8sRExODkydPIi0tDbGxscJ22WwIgaM+S2PCekTNZjPWrl2LyspKzJo1S4hBFcfXOiKs4atQKNCpUyds27YNSqUSISEhAGzrcG3lzxpHR48excKFC6FSqZCTk4OUlBRs2LABvXv3tomRFi9eo8duFaNrT7bsrARdmCrWgw0BO2BQKBSoqKjA7NmzER0djbFjxwohEPeCAcjOQnh6esLT0xPfffcdunXrBp1OZyNPSlM+E/1tdj+M0tJSzJgxA0888QT69esn6OR7Qf7AzYFj69atYTKZ8Pnnn+ORRx4R1mdI6WMlasLxh/dOijg+j+d5TJgwAYmJiUhISLDxXjqS0WoPGsoB3FysOWHCBDRv3hxfffWVzXmOMq0rVowcx+HDDz/E0KFDbbaeZ893VFj5AzdihJOSknDt2jXs3r27zgbY/Qg1HtPS0vDXX3/hmWeeEbYeBxxvDYM92F0TAaBVq1YYOXIk1q5di9LSUpswkVttIsJ6fo1GI8xmMyZOnIjnn38er7/+Oi5evIgjR44AAIqLi7Fr1y5kZ2eD53kUFBSgpKQEMpkMFosFly9fBnAjxv7IkSO4ePGiMOOUn5+P9PR0nD9/HgaDAceOHUN6erpwr1arFenp6UhOTobZbG5wmbEbrPA8j5UrV8LDwwMTJ04U9l+g5zky4sGLXC5HXFwcevfujSlTptgcpyFFjlCXWccBz/N46623EBsbiyFDhgj5tu3Nhjga7CwkDfcbPnw4oqKiMHfuXOE42587gvwlHAfJE96EsNOuK1euREFBAebNmyd0kvfSbqTijl2hUCA6OhqbNm1CixYt4O/v73CeACpbnucxb948tGjRAs8991yNsaqOir3pcldXV3h7e+Pnn39GdHQ0tFqtzfPU57nsre6vywCxpsGk2HNaF4O3Nm/r7UBlQY3CTz/9FAMGDECPHj2q/d/REZc/9cjl5eXh999/R58+fWzOq01ubCaHzMxMHDx4EEOHDoXZbMb169exatUqjBs3Dvn5+XjjjTdgMBiwZs0aEEJw6tQpbNy4EQMHDsT+/fvx/fffIz4+HuPHj0dmZibWrVuHqqoqNGvWDK+99hp++OEHlJaWYv/+/dizZw/27t2LlJQUxMXF4aOPPsLvv/+Ov//+G5s2bUKvXr2EOiweHNO6Y2+3yVvJDQDS09Oxbds2zJgxA97e3sL/7qXyZ+9TLpejS5cu2LlzJ65du4aYmBjh/44SVsP2fb/99hvOnDmDRYsW2SzUZF8dGXt9X0JCAn744QeoVCqbbGH3wvNINC6O0SLvYwghuHDhAvbt24eFCxc6/Mj/dvD09ES/fv2wbds2GI3Gapk6HAFCCJKTk3Ho0CG8+OKLTiX/qKgo+Pr64rfffrMxKuor/5qM5trOZ7P+0Fd2oRv1zgK3HvSIf599rS88z+O3334Dz/N46KGH7uhajsaYMWNw5swZ7Nq1y8boqU3G7MCfEIKsrCzMnTsXU6ZMwZgxYzB79mxERUVh69atCA8PR58+fTBgwADs2bMH3bt3x7Zt23D9+nUcP34c3bp1w6ZNm2AymfDYY4/hmWeewcyZM1FZWQkPDw98/vnnePfdd2E0GhEREYFJkyYhPj4eFy5cwJkzZ/DII49g4MCBkMvlOHDgADiOA8dxwmJPMXShH3DrekFlYDKZ8Mcff6BXr17CLqjOwvvvv489e/bgzJkzAG7O+jgSdLZu2rRpDndvd8qECROwY8cOFBQU3DOefYnGRzLCmxCZTAaDwYBff/0VAwYMsIlDdgYUCgX69u2L0tJSHD9+3MZr5SgUFhZi1apVmD9/Pry9vZ1K/hqNBuPGjcOvv/6KjIwMAHUznmuCzSZSX9g4UPa69N5qQ+xFFx+7XXieR3Z2NhYvXozp06cLmVCcBXd3d7z77rtYvnw58vPzb/v7crkcoaGhmDNnDmbPno3OnTtDqVTCarXCYDCA4zjk5uZCpVJhwIABCA4OxiOPPILVq1ejtLQUERERuHLlClxdXZGfnw+z2YzXX38dAODn5yfEyz7zzDOQy+X48ccfsXnzZhgMBlgsFhQXF6OwsBDdu3dHu3btqsUJ26sv7GLaW8FxHNLS0nDp0iUMGDDAITKHNCS+vr4YMWIEfvrpJ1RWVjqU3qUzULt27UJgYCAiIiKcSvcCwAMPPAB/f3/s3bvX4fo9CcdBMsKbEEIIrly5gmvXriE+Pt5hpgobEl9fXwwaNAhffvklAMeLbz948CACAgJspmydBZlMhjZt2mD48OFYtGjRHRuu4pmMW3Us7JQyNZzogje2HtD0ZHXxFFFPZ0MMCGQyGf7v//4PTz31FEJDQ52u/GlYwoMPPohff/21TusB2DpitVqhUqng5+eHqKgoTJ48GTNnzsSlS5cQEBAADw8PjB49GpGRkUhPT4fZbMaMGTPw1VdfQaFQoE2bNujRowc4jsPQoUPRpUsXbN68Ga6urlAoFMKC2FWrVmHw4MGYNWsWtmzZApPJBD8/P/Tt2xf/+Mc/UFBQgKKiIpSUlKCwsBAcx+HKlSswmUywWq3Izc0Fx3GwWCw2ixRv9ZxyuRyLFy/G0KFDq+006gzIZDLEx8ejtLQUGRkZDrUehBACs9mMAwcOoF+/fkIufmdCp9Ph4Ycfxs6dO4W66Sjyl3AcnM/qu4fgeR4HDx5EUFAQgoKCYLFYmvqWGhxCCB566CGUlJRg586dDrU4s6ysDMeOHUOfPn2gVqttFjc6CzzPY+zYsTh79ixOnDhhs5DoTqlLznf296ixTY/ThWK3sxkHa6jfSYdGCMHff/+N06dPY/LkyQAcfxFefeA4DiNHjsTRo0eRl5cHoPbnpIt8CbmRe97Ly0swHnr16oWxY8fiiy++wIgRI5CTk4PHH38cb7/9Nvr06QMfHx8EBQWhX79+6Ny5M1xdXZGYmIjOnTtjxIgReOGFF7Bo0SLIZDfSuQE3yr5r165ISkrCmDFj8PLLL6N3797o3bs3XnrpJQwdOhQGgwHdu3fHL7/8gvfffx8VFRX45JNPcPHiRVgsFrz11luCR56GN9UlVColJQVXr17FgAED6vSdew2ZTIbmzZujY8eOQkiSo3hkCSHYu3cvXFxc0LlzZ4feh+FOiIqKglqtxtatWxvEcSDhfMiIVCOajMrKSowbNw4LFy5EaGioQ8ZM3ym0eh06dAiLFi3C+vXrodFoHOIZjx8/ju+++w5vvvkmfH19nVr+P/30E44dO4bZs2fbbAF9O1RWVuLixYswGo3geR5qtRotW7ZEq1atbhnLzXEc8vPz4e7uDr1eL+w0R+Vd1538CLmxoQ5dpAfUzxjnOA6ff/45tFotnnvuOeHazjYbxfM8KisrsWTJEkRFRWHAgAF1ljNgO+hhU1xSg6KiogIuLi7CgIxmHaHn0+8bjUbI5XKh7bM7c3IcB7PZDLlcLuxOSeuM0Wi02f1VvPmXuPuq6yDNbDZjzJgxSEpKQu/evZ2y7QM3Q67eeecdLF26FO7u7g5Rx6uqqtC/f38sWbIEXbp0cUr5U4M7PT0dL774IrZv3y6EYElIUJq+Nd4niBeS8TyPP/74A8HBwWjXrl1T3lqjEBcXB0IITp8+3SRKyJ78jx49ioiICPj4+AjnOauCTEhIQFFREa5evVrva1y9ehVffPEFDhw4gOTkZGzduhX//ve/kZ2dLXQ4YqOIdq5msxk///wzzp49i2PHjuH8+fPVzqHeSNZTy16Pvn/ttdeE6d26wt4bIQSFhYXIy8sTsqEAzlv2bm5uiIiIwKlTp+o821NblhE204O7uzuUSuUtd8TUarVwcXGxMZDZjB2urq7CfgI0fEmpVMLDw0M43152Jfa1tnsWl/+ZM2egVquRkJBQJ3ncy7Rp0wb+/v74888/m8QAF+teQggOHjwIf39/PPDAA41+P41Nly5d4ObmhuTkZKfVMRL1RzLCGwl7je8///kPRo0aZbMwzRkbKTWqRo8eja1btzbJPdiT659//omEhASH8AzdDWinx3EcdDod2rZti7S0tHpfz2q1wmQyYfTo0Xj++efx0ksvwcvLC9u3bwfHcaisrERKSgrS09OF3yWE4PDhwzh16hQKCwthMBgQExODsLAwlJSUoKCgAHv37kVFRQXMZjOSk5Nx6tQpG2M8LS0NBw4cQEVFBfLz87F69WobI74uiA207OxsyOVyBAQEOGWbA2x3sYyKisK5c+eE7ezrglhmNbUT9rxbedntpWqraUbjVsfr+tnesV27dmHgwIE2gwdnqwdsuskRI0Zg8eLFTXIf9uT67bffYtKkSYL8nbXvo7z44ov49ttvm/o2JByQugdjStQb1tNHp1MzMjJQWlqK7t27C8ZSXaaJ7zXYacbevXtj3759KCwsbLSFUOKpa/p64sQJKBQKtG/f3imnQgHbDaEUCgUiIiJw4cIFVFVV2WxIU1eop7q0tBQqlQplZWW4du0aEhMTodfrMWfOHFgsFpSUlCA4OBjvvPMO5s6di9zcXHh7e+PYsWPo3bs3vv32W3h6ekKj0WDFihXw9fXF1KlThbjJsrIytGzZEnPnzsV7772H1NRUhIWFYe3atYiNjQUA/PHHHwgLC7vlc9hLDcbzPM6ePYugoCB4e3vfcgObexW6uFKpVCIoKAienp5ITU1F3759m/rWGg3xLr2EEJSUlODy5csYOnQoAOcMQwJubuKkUCgQGxuLiooKnDt3DuHh4Y12D6zc6WtOTg6uX7+Ohx56yKn7PopMJkP//v2xbNky5ObmonXr1k19SxIOhGSENxJsPCMhBHv27MHo0aPtnudMxiDr5Xd3d0fz5s3x999/N5oRThU/7Yypd3Xjxo0YNGiQcJ64s3AW2JRtbdq0weHDh1FeXl4vI5wQgoKCAnz66aeQy+U4fvw4Hn/8cQwcOBApKSnIyMjAlClToFarMX/+fPzwww8oKyvDl19+CYvFgvnz54MQYpMpYODAgZg5cyaOHTuGq1ev4plnnoFarcaHH36IH3/8UdisheM4nDhxAqGhoZDL5Zg2bVqd1haIY4TpArCzZ89i2LBhds9xJtjdB3v16oVt27ahd+/eTml02sPeACwnJweenp7w8vKyOdfZ2j5ws/0rFAqMGDECO3fuRIcOHRr1OVm58jyP48ePo2fPntUyIjmb/NnnUygUiImJQVpamlPPvkncPveHJm5C7HniCCE4evQoHnnkEQC2u745W+Nkn0ur1aJFixbIyclp1N8XG1mEEOzYsQNxcXE2x+h7Z4LdCCcoKAilpaWorKys9/X8/Pwwc+ZMvP3223jiiScEY66srAxyuRx6vR5FRUUYP348NBqNYOi4uLigefPmNnVcJpMhICAASqUSxcXFsFqt0Ov1KCkpwdNPPw0XFxchO4eLiwvat28PnU4HuVxep0xC4jKnA2GLxYKsrCy0a9fOaQdfFLb8u3fvjp07dzrlc9pDnJKPlv/Vq1eh0+ng7u7utAYghZXB8OHDsW/fvkZ7TjYchu0Hzpw5g86dO9uc64zyp84f+lzR0dE4c+aM0z2nxJ0hGeGNDJ0O1ev1NhsUOFLqvruFSqVCQEAArl271ujpGFnFl5ubC7PZjJCQEKeWv3gA4uHhAR8fH2HjnvpcS6vVolmzZggODsZTTz2FQ4cO4eDBgwgJCYGXlxd69+6NIUOGYPv27cKAq6SkBGVlZUKsN40vpvKmOaV9fX3Rt29fDBkyBLt27YKvry+uXr2K0tJSFBUVYfny5cjIyBC8e/ayY9wKmUyGCxcuwMXFBX5+fjYDAmdLFCU2bAICAqDRaJCZmdmEd9V42FucyfM8cnNz0aJFC2EmxRnLHrA1ggEgPDwcZrMZBQUFjfL74kWzNJtOYWGhje51VvmLdVTbtm1RXFyMioqKJr4zCUdCMsIbAXY0LJPJcOXKFQQFBdmEajijJwBAtU7Oz88PFRUVMJlMjfL79mR74cIFYTqUnkPv9W7ex904tzbYAQaVQdu2bXHx4sV6XUupVEKn0wl5vdu2bYvx48fjs88+Q2BgIHr06IGpU6di4MCBGDp0KBITEzF69GiMHz8eSUlJQhYMDw8P6HQ6eHp6wtPTE4QQhIWFISoqClOmTMHgwYORkJCAhIQETJkyBSNHjsRzzz0HNzc3hIWFYdy4cXj22Wdx/fr1WsuMDT+h9ZBmxencubPNFLkzIjZy5HK54I27H6Dlz7YDs9mM0tJSBAQECOc5q+4VL4KVy+UIDAzElStXGuX37cm/pKQEOp1OyBPvzH2feNMod3d3YS2NhATlvogJF3sE6roI73aVA5sGi/0N2vlTD97169fh4+NTbcEQ+7m256A7xv39999CmEFQUJDNSnMWdoGe1WpFVlYWcnJyhNhQ8W/bMwLFU/ZsjHVd5Em/7+3tLWTCaGzoc2VlZSEiIkI4Jl44VFpaiitXrqBTp04AgCtXrqCgoADR0dEghCAvLw8WiwXBwcHVysve9WgcdEZGBsLCwnDq1ClUVVVBJpPBxcUFbdu2FYxRsUzF16dlKd7qnfUss/VNbIgFBgZix44d1eRCvyP+XXZhW/v27fHhhx/afHfUqFEYNWoUeJ5HUlISJkyYALlcLqSjGzp0qBB7T3NA9+jRo1p90Wq1eOmll/D8889DqVQKucz79++Pvn37wmw2w83NDQCwZMmSOi+mo4vT2HNPnjyJ3r17C8/O5p6uD7m5uTAYDGjfvj1kshvpGC9fvoyAgAC4uroKhgiVKw25CQ4OtquXxKFrdxK/La6bkZGROHfunBAP7wyI6y9bpgqFQjjO8zw4jkNJSYmwLwDHcUhPTxfao1arRZs2beDh4YFTp04hLCwMarXapmzEbdxoNCIjIwM+Pj4ICAgQjp88eRJqtRphYWHV2jL9XFJSgvz8fISGhgqbDbH/z87OhpeXFzw8PGqtK5mZmfDz84O7u7vNb1D5UFq2bIlr164hOjq6UcpGXJ/1ej2USiW0Wq1dXXm7xnhVVRUyMzNRWloqfNfX11coZ+BmG1Kr1QgODkZWVpaQl57O6mk0GlitVpw9exbXr1+HVqtFVFRUg+zkSZ+N7hRbXl5+x9eUcB6c3hMujvmri8Eo7gTrCqv8zp07h59//hlms1noDGjKtuvXr8PX19dm0Rx7j7XB8zx27dqFhQsXIjk5GYcOHcL777+P5ORkoVOh59kz5K5evYovv/wSx44ds7lvtqOix1jZ1Xf6XxwP6O3tjcrKykYzwu0ZNpcuXUJ4eHg144beY2lpKaZMmSLIYvny5Zg2bRoqKiogk8mwevVqHD9+vEZZsLKi1+B5Hh9//DFKS0vx7rvvYu/evdizZw/WrVuHd955B2azuZqBzV6PPot4wES9LWyGD3GdYgeHgYGByMrKsjmHfj8jIwM7d+6EyWQCIUTIKc3udFnb89JBhUajsTmuVqsFQ+ZW9Yfmi2bvW6VSQavVCufI5XK7ealvBTWG09PTERISIjz7nbJ9+3b8+9//xqVLlwAABoMBK1euREFBgVD+7HPn5eUhJSXF5p4oYh1wpwMEcd3p3Lnzbad3vJeQyWQoLi7G9u3bBfmzxjNdd0CdIOXl5Vi0aBF++eUX7Nq1C99//z0WL16MoqIivP/++ygsLBSuQdsBa9zKZDLk5ORg7ty5+OqrrwT9W1JSgpdeegkrV64UzqX3x87QbNy4EQsXLkRWVpbNefQ3161bh1OnTtnoBLbNU44cOYLCwkLhuLjO0M8tW7ZEfn5+g8vdHuIBpEwmQ1lZGdRqtWCEs+fWpy1ev34dS5cuxfbt2wWdeu7cOZw+fRp79+7FqlWrsHTpUuzatQspKSlITU3F0qVLsXv3buzcuRNLlizBhg0bYLFY8Msvv2D58uX466+/sHnzZsybN++O1s/Q56LP7urqCpVKJRnhEjY4vSdc7EW0Wq2CEqup0dvzJNzKI8V6hhUKBQIDAzFixAgsWrQIc+fOFbzOcrkcFRUV0Ol01YzkW3W2crkcly5dwvr16zvwRS8AACAASURBVDFmzBh069YNALB161Zs3rwZcXFxKCwsRHFxMQghCA8PR3Z2trAILSAgAGfPnkVJSQmeeOIJEEJw+fJlXLp0CcHBwQgODobBYIDBYMC1a9dgNpsRFRUFjUYDjuNw/PhxVFVVITw8XMhuUhcPOJUP9TSZzeZG26aYNVyBG2VZXFyMFi1aCOeIvdaBgYG4evUqMjIy4Ovri8uXLyMoKAhHjhxBYmIi9uzZg8mTJ8NqteLChQvQ6/WIiYmBRqNBUVERTCYTzp49i8TERBQVFSEjIwMhISHIzc2F1WrF1atX8cILL4DneZjNZowdOxZHjhxBVFQUrl+/jpKSEjz44IMoLCzE+fPnERAQgKCgIBByIzvJqVOn0KZNG2GTp4yMDGRlZaFTp07CNLt4mpfWT09PT8FDRDvxyspKfPLJJ/jvf/+L2bNn22RUYF9v1V4AVDMWaju3tvJi39fXU0bPp7NAtN0XFBSgWbNmdn+rPhQUFCA1NRUbNmzAK6+8Arlcjry8PJhMJshkN2LQy8rK0KpVK/j4+KBFixZ48MEHodfrAdwwyvV6vTDzkpOTg/bt2wsLSMPDw+ttpLA6TC6Xw9fXF0VFRfV6TkeF1hGqYzw9PXHgwAEkJSXh5ZdfxoQJE6DRaIT6WFlZKcyqADfWJIwZMwZt2rRBWVkZFi5ciJMnTyIzMxMVFRU4cuQIWrdujaCgIJSXl6O4uBgFBQXw9vZGu3btYLVaoVKpsGbNGrz11lvQaDQ4dOgQCCHIzc1FUVER1Go1PD09YbFYcP36dXh7e8PV1RUbNmxAZGSkkIZTJpOhsrISp0+fhqenJwoKCmA0GnHlyhW4u7vj+PHjaN26Nfz9/ZGamorAwEC0adMG3bt3h4eHBwwGA/R6Pa5duwaFQiHsRkmf3cPDA7m5uY1SLuK+lxCCqqoqKBQKqFSqW86+1gWLxQKTyYSxY8eiefPmwrWBG86DTZs2ISsrS8jatG/fPvj7+2PSpElwcXHBiRMn8N1332HIkCFYs2YNkpKS0LNnTxiNRrz66qvIyMhAZGRkvWejWL1F1yA0ViimxL2B0xvhLOIp+ppgPYes97w2RUGvSfOd6nQ6zJgxA1OmTMGwYcPQv39/zJ8/H/7+/qisrISPj081BXQrQ4PneVy5cgVarRYxMTFwc3NDZWUlBg4ciEGDBoHjOLzyyiu4cuUKevTogd69e+Ozzz5D165d8corr2DZsmU4f/48zp49i5MnT6K8vBxLlixBdHQ0fvvtN3z99dcoKirCggULEB0djZycHAQFBWHRokWYMGGCcM9lZWVYtGiRsO34rWTJGoJqtRpWq7VR43DFcq6srISHh4fdWRL6/rHHHkNycjLatWuHdu3aITw8HDt37hQMYnd3d3z66adITk6Gv78/Xn/9dfz4449Yvnw5tm7diubNm8NkMmHVqlVo27YtTp06ZePpNplMghFOjYcvvvgCmzdvRlBQEBYvXowXXngBISEhOH36NJKSkhASEoIPPvgAoaGh+PTTTzF58mTwPI9vvvkG8fHxWLNmDV566SV06dLFbt5dQm5kGamoqADP88jLy8OPP/6IBQsWoLi4GHFxcejevbuQ1k4cz3mr+l9TPWaPs/dS03XYWQR2sCz+jbpci+M4qNVqG490WVkZ3NzcbLyOd5Kn2MXFBQ8//DBOnTqFU6dOoV27doLsPvroI2zfvh2RkZH4888/MX/+fOh0Ovz++++Ii4vD8uXL0bp1a5SXlyM6OhpJSUl49dVX8dxzzyE7Oxt5eXn44IMP6nVf9srA3d0d5eXld+RddzRoHaFOEJVKhcGDB+P777/HG2+8gaVLl2LevHno1asXVCoVLBaLMFtDvcZGo1Ew6EwmkzBoe/HFFxEWFoYzZ85g5cqVOH78OBYsWICHHnoIx44dw5gxY9CjRw+0aNECkZGR2LVrFx5++GEcOHAAQ4YMwV9//YX9+/fj9OnTmDFjBq5evYrPPvsMb775Jvbv3w93d3c8+uij+OOPPzBkyBAAwIcffojLly+D53mcP38eAwcOxIIFC5CdnY22bdvi7Nmz8Pb2RnBwMI4dO4Zly5Zh2bJlGDt2LHJycvDxxx+je/fuOHz4MMaPH4/p06cL7cnFxaVRjUCxt5vqP/GsXX3DUahjraSkBCqVCgqFAr6+vtBoNHBxcYFWq4VGoxGyKtHfpWVsMBjA8zx4nkfHjh2xdu1aqNVqhISEYNmyZTZ6oj7PzvZ9VMfUdddaifsDpzfC7U3LnT9/HkePHq2xwYuNMo7jhFASe7DeNvY3rVYrFAoFjEYjtm7dii1btuDJJ5+E1WpFaGioXS9tbUpIJpPBYDBAJruxSI7neaxfvx45OTkoLi7GJ598Ajc3N7z++usYNGgQkpOTMX36dGg0Gpw/fx7Hjh1DQkICCgsL8cQTT+DChQtISkqCWq3GxYsXceTIEbRv3x6xsbGYPXs2rFYrJk2ahLy8PAwZMgRhYWG4cOECNmzYICiv2mYUWKgRR2PvGtMIp50zlbPBYICnp6fN/ym0M3/sscewdu1amEwmhIeHY9CgQVi7di1OnDiBTp06QSaTYceOHVi1ahVatmyJV199FZs2bYLZbMbEiRPx7LPPYuXKlYiPj8f06dORnp6OWbNmCSnyPvjgA6hUKuj1esTGxqJnz57Yt28fnnnmGUyePBmLFi2Ch4cH+vfvj9DQUMyaNQurV6+Gu7s72rVrh4SEBDRr1gwnT55EmzZt0L59e0RHRwveIHF9pPJ3d3eHXq/H119/jVWrVuH48eOwWCyC92j//v3Yv3+/zffshciwsO2FfhbX5boYzSy3M0N0O8hkMuj1emFhGHBz4Fzf0BSe5xEaGoqgoCB8/PHHWLhwIeRyOQoLC7F582bs2LEDKpUKM2bMEH6Htp2WLVvim2++wZEjR/Djjz+C53m89957eP311xESEoL333//lrNwtT0rYBsW4OPjg6ysLHzzzTf1elZHhq0rHMdBpVLBaDQiMzMTY8eORY8ePTBy5EiYzWYh/loul+Py5cv45ptv0KxZM1RWViI0NBRRUVEAgBkzZqBfv3548cUXkZ+fD6VSibi4OMyfPx9FRUXo378/Vq5cCUIIxo0bh7Vr1yI8PBxarRbe3t5QqVTo3Lkz/vjjD+j1ehw5cgStWrWCt7c3vvjiC3Tt2hUWiwVpaWnIysqCVqtFXl4eZs+ejaCgIPzzn/8EcENHDRs2DOPGjcO8efPQtWtXjBgxAm+99RYuXrwIjuOE0Mc+ffpg/vz5SE5OxpIlSzBt2jThGjqdDgaDodHLhMraYrEI4WS30/fVRmlpKZYuXQoXFxd4e3vjqaeeEmYA6CCL53loNBrwPI/U1FR88skncHV1RVlZGfr37w8vLy+89tpr+OGHH4TybN26NV544QX4+vreUdga/a5SqYRCoWiS9VASjovTG+H22L9/P9LS0tC1a9c6nU+N3toaIl10xmZCoR5FCp0Ot5dira5KyNPTE0ajEXq9Hm5uboiNjYWPj4/gLXNzc4O3tzdkMhlSU1Nx6dIlREZGQqlUwmg02ii98+fP4/z583jggQcAQJg+9/HxEbyHGo0Ger0ehw8fRl5enk0sX13ul8qkqTYHsSdXtpxYbyibTeDBBx/EwoUL4efnhyFDhkCn0yEoKAh79+4VQnlMJpMQ1tCxY0dcunRJCEUCgPLyciH2lE41AzeMPtq5uru7o1WrVkKojo+PD2QymTD9XFxcDC8vL0ybNg0dOnTA8OHDkZKSgn379iEqKgojR46EVqvF0aNHUVBQgCeffBIBAQE28hZ7RGUymVBf6aCDhmkplcpqZUUNltuZ9RDLm/7fERCHuNBjd2KEK5VKPProozhy5AgWLVoEnudhMBigVquh0+nA8zy8vLyqhfYEBQVBJrsRL0r1RcuWLWEymaBSqYTB0Z3cn7j86SI1Z4E+E6t77T2zPT3O8zz8/PwwaNAgBAcHw8PDA/7+/nB1dYVMJhNS6bm6uqKiokII6VGr1fD394fRaBQ8yz169MDXX3+NHTt2ICgoCG5ubuB5Xpg5S0tLw6+//opZs2bh3LlzyMzMRPfu3XH27FnodDp8++23mDBhgqALCCEIDQ0V6mtYWBjkcjnc3d2FHOeurq42+lipVMLT0xNKpRLe3t6wWCzV9N2dGJT1KZu6nHMnddvPzw//+te/0Lp1axBChOxN7LVZnRYSEoLhw4fDy8sL3t7e8PPzg9VqxcqVKzF16lSMHTsWly5dwsKFC7Fv3z784x//qNe9ie0B9riEBMXpjXBW8dBGQQhBfHw8Ro0aVedr1LXhsEpnzZo1IIRArVbj0Ucfxdy5cxEYGIjvvvvOZtdA+ht1uY/27dtDrVbj66+/xr/+9S+EhIQgLS0NVqtVULh02o1OU0ZFRWHz5s0202AKhQLLli3DJ598gtjYWGzevFnIX8peQyaT4dSpUyguLsaCBQuQkZGBjRs3gud5wdNfV9nQeDh7ht7dQuyBpR2cwWCw8XCI78fNzQ3NmzfH5cuX0bJlS8jlcoSHh2PTpk1o1aoVFAoF/Pz8cOLECcTExGD9+vWYPHky0tLSBE9PYGAgTpw4AZPJhN9++02oGzRVHFv+dABEZd69e3ccOHAAjz/+OJKTk7F+/Xp06dIFJ0+exNSpU5GdnY158+bBaDSiQ4cOmDVrFlatWiVk/hDPylBZGAwG6HQ6jB8/HoMHD8bPP/+MOXPmoKysDBzHoUePHujQoUO1WY57dWt3KmO2M3zzzTdRWVlps+PmnXSM1LB2dXXF7NmzER8fD09PT7Ru3Rqurq74888/0bFjR6SmpiImJsYmk409I+Xrr79GYmIirl+/jgMHDuDRRx+t972Jr19cXIygoCCMGzeu3td0NKink12Tk5KSAqvVCqVSiQ4dOmD27NlISEiASqXCoUOHhDhumUwGnU6Hjh07on379gBg13tKP1utVpw+fVpwTNDMRjLZjQXIDz30EDZt2oRZs2ahpKREOD5o0CAsXrwYCoUCkZGRWLhwIZ588klMnz4dAPDwww/jiSeewNNPPw1CiLCr58GDBxEXF2djSNJnZZ0GbLgY6wSyWq0g5GaWGLPZXK/dcu8U2g7ZUDc6wLyTtkcHWBqNBiqVqpqeEqcJBG7MBsXExECtVtvMgv34449o2bIlRo4ciRYtWqCkpARarbZBjGaZTAaLxWLz3BISwH1ghNeEeHTcUFBlQ1fdx8bGYu7cuUIHAAAajQZVVVXVDKS64OXlhbfeeguffvopIiIi4OrqiqCgICxZsgQqlQp+fn5CvOMbb7yBefPmwd/fHxERESgvL4dKpYKXlxdkMhleeOEFzJs3Dy1btkT79u2FmOFmzZoJhmTLli0RGxuL3377DZMmTRKMU4PBUM3TX5M8WO+7xWIR4i0bA9bwpbi5uQm5Wu159WkoR0JCAnJzc4V0ZtHR0Th37hyaN28OmUyGadOmYeHChSgvL0e3bt0wfPhwXLlyBR4eHuA4Dn369MHhw4cxatQoBAYGCmkkAwMDq6V4lMvl8PHxEVKMjR49GidOnMDw4cNhtVrx8ccfo2XLlti8eTOeffZZGI1GvPHGG2jRogVmz56NL7/8Er6+vpgxY0Y1A5yVf1VVldCxNG/eHM8//zxGjx6NxYsXY926dUhOTrbx2otjOO817HnCPDw8UFFRYbNt+Z10tDS9JHBjZmPlypX44IMP4Orqio8++ghvv/22sGiXZo9p3ry5sIso7Zh9fHxw4cIFHD58+P/ZO+/wqor0j3/PLblppAMJNZQECBKKAQSkg4Iu2N1dUFSQ/akoAgvogogV3LXuYqNIEQVFVMAVEEFqIlKCAUFKaIEkGJKQntxyzvz+YOcw5+QGSOG2vJ/nyZN7zz1lzrT3nXfeeQdLlixBdnY2Xn75ZQwYMEC1zNbk3cXr+KJwX0KWZZhMJtWtqqKiAt988w3MZjM+/PBD/PWvf0VQUBAk6XLkI+6m4u/vD6PRiCZNmmh8xHl+xcbGqoaGhg0bIjg4GBUVFTh16hTGjBmDiooKfPzxx6o13WQyYfjw4Th8+DDat2+Po0ePIiYmBoqioE+fPpg4cSJeffVVlJaW4ty5c5gxY4a6QLRLly7o168fUlNTMXLkSLz66quoqKhAQkKCuslWYGAgDAYDGjZsqIbOi4iIgL+/PyIjI2E2mxEREaHOzgFXZlp4P1xcXOxSJVychQCgKsq8zIDatT2LxaLONjqLEBUUFISwsDDVpTQoKEidbeQzfLy/X7BgAaZMmYI33ngDiqLgsccew9ChQ2tsqdfLPnFzMoJQYfUARVHUz7Iss/nz57Mvvviizp8hy7L6/9ixY+ybb75hpaWl6nF+3sqVK9n8+fM1x52l1dkz+B9jjJWVlbG8vDz1Pg6HQ/NfURRWWlrKysrKmCzLle6hKAorLy9n5eXl6jWyLKt/PL/48UuXLqnf9c+53jRnZmayKVOmsAsXLtQ8s6uB+Gz+ecaMGWz9+vXqsarOdzgclY7p89pqtbLS0tJK+cqvczgcrLS0VL2feA7PYw7PdzF/S0tLmd1u1zy3qKhIcx+73c6KiorU9PL/4r14mg4fPswefPDBSum12+3s+PHj7KefflLrg91uV5/prTgr/yFDhrD9+/dXqrtXq8fXQl8v+Oc33niDpaSksH379rGxY8eyQ4cOVeor9Onk38V2WFPEd2eMsa1bt7K//e1vtbqnpyHmoyzLLD8/n23evJllZ2dr2gBjjBUUFLCnnnqKnTt3TlMGYjk4az+8XNeuXctmzJjBSkpKNO1DLFPxGlmWWUFBAdu6dSsbPnx4pb5Cfy1PQ3FxMbPZbJXaqb7O6P+L7ySez99pyZIlbMmSJa4pGFa579y1axebM2eO2ofpz63N/cX3FZ/p7Dd9HjJ2ud90OBzs0qVLzGq1Ou2ja5O+goIC9tprr7G9e/fW6p6Eb1FvLeF1jd4XsW3btqp1WdH5H0dFReHUqVM1GmHze7D/Wa3FKXVutRTTIm42wC0FTLD+8vjN4r3F6XJ+PmMMYWFhGsu3Ps759eRPfn4+AgMDXTYlJy4M4mlo2bIljhw5om4i4wweE5i/H7eW8GP83bnfrliO3HoGXM4/HuNazGdu/RTzmVsteXqNRqOm/Pg7cH9QDl9wJZ7Dj4vf2f+muWNjYzV5w89t06YN2rZtq57LrTjeagUHrvhlit8TEhJw+vTpOtuwRGxXYl4ZjUYkJSUhJSUFsizj9ttvR6tWrTTXXU/6gdrv6sjz4ciRI4iLi6vxfTwV0TUjLCwMgwYNAnAlj8U2ERoaiosXL6ob6/BrxVkfXqa8LfNzmjdvDsZYpbUximBBV/7nEsP7iIKCAqSmpmL69OmqD7foOiPKB36MW73Fdi66VuoXS4tpEY/xWSCeD1lZWejWrVsd5/71IUkSQkJCYLPZUFFRoc5O1PaeV/sOaGOvi1ZovTzkfTCXc9dakH4t9GVSWloKh8PhczNRRO0gJbwOUP4X4ogv+uGdH9+Vi0+7cUWucePGyMnJcbpgrjqdEj+fCwpxsR1/ltgROFsoIk5V8mv4OWKEDf00nyj0riedvMPLz89XN2RxBTxfRUHXpk0bLF++XE2beB733eNlyTtiMV/0gk701eQdvahM83PEPBN9kcW1CqLiKw4eeF3S+1Hya7jQ4AqDXvng+Z+RkYHY2FhNnoiKKv8sLiC02WxevZBPH4+4a9euOHHihFOFpab3FwdTPF8VRcHAgQPRo0cPSNLljYz0U/A8VJrYTnkMfVFhqOl0uL7809LSauVj7ono27BegRbrt5+fH8LDw9WNfESFm0cVEtun3nXgpptuUnfb5c8Q81hc78Lv27RpUzVOtTjQ1vcH4qBY/056+aB3ORMVe/5ZP8h2OBy4cOGCZo+EG4mYdv5OXAkvKytDw4YNNefVtI6Lgxn2v4WZvO/kz9WXtf5ZYj/Kv/M8FuVgddMmPrO8vBw2mw0NGjSo9r0I38V7TVweBFe0RaWLW5lNJhNkWdZ0FE2aNEFubm61QxWJip2opInCgwsbvQVFf5wf4x2X2HHz38XreYhGblkR3/Vq1nC9Mpqbm4uwsDDVB/NGo+9sFUVBfHw8fvvtN81CVfEd9Ao4zzvRIsavFZUmnjcANJsRiTMVPM9FpZfnvagwcEWOl4m48Mhut6tpFsuPCwr9tfx3RVFw7tw5tG/fHoBW0RcHCXo/Rl9ZSMTfp0ePHmpYt7pEVMp4/vNoFjxOsdgWlP8t/AO0dYfXM3EW5nqs5npE5RC4XGePHDmiRkPyFUTFSRxs8/bAw+LxY5GRkcjJyaly9kKfb+L9TSaTZvaRK92iDNDDZ7RERVFfnuKzRGu3WJfEeqP8b5EoR+y3xUGd2MdLkoSzZ8+iWbNmtczx68NZ38v9s+tq10j+vlxR5qF7+W/6MhYNHqJcFOuAvu+szeBclI9FRUWQJEkTHpcgSAmvA/SjbmdWY3FEHB4eDovFgpMnT2oUuGsJWi5EeOcgXqsPy8QFAu9AnLkWiIqC+JszKxBXTMWO6XosGDwPeHzU7OxsREdHu0yxE4UaT0eTJk3gcDhw/vz5ShZMQPv+vJPXW3TE/BatxvyPXyPWBfFYVZYVvUIMVFYGxLzjwkIUGvyzKGyMRiMKCwtRUFCA2P+5o4jX8/fSW+r0FjVvQz8YNRqNaNOmDYqKitSdZZ2dW11EpUxU2gBo6phYT/T9hLP7AdrBX3URLX+ZmZmQZRktW7as0b08FbGP01uXGWOamOAGg0Hdul0M2crbinitqMCJyr2+fEX0fa5Y3mLb1A+YxWvEQYT+eWLanIXN1SuO4v14KMTIyMi6y/xroG9/ISEhCA4Oxrlz5zSGDDH/q3t/vaIs9n/8/mIanPWV4u8iNVXARfjg68yZMwgPD9fs1koQpITXAaLyoj8u/heV3d69e2PNmjXX1bHr78c7DmedcFXWbH1a9em+Wkd0tXRcC/G9ysvLceHCBbRo0eKa19UVzt7PaDTiT3/6E7Zs2VKj/NffW/ztevL8avd1Vo9ExUI/iKrqXP67aHk9d+4cgoODERIScl3vdrXv3oKzfDebzWjbti2OHj0KoPIgpzbPASoPZsUycdZmqhrI1jbP9e4Ae/bsQd++fX0+OsO1yqJZs2YoLCxESUnJNdu+ODshKnDiPfVK9LXS4uz+VbU38XlXO9dZH6JfC/Htt9+iT58+tfJzri7O5E1iYiL27NlTyVJck/anH9CKXK0snH2v6v61GQADV9rhgQMH0KFDB6/tS4kbAynhbmLAgAFYtWqVZhRflTD2ZsR3Ki4uRk5OjmZxmrt44IEHsGHDBp/Of/0A5PTp04iKiqr3C4Mk6fLmSocOHQJQvfUN3oRYrxlj2LVrF+68806vndWoK5o3b46ioiI1jvfVFDlvRnwfWZaxatUqDB061I0puky3bt3w888/V+p7fT3/U1NT1Z1YCYLjW7Xei4iNjUVkZCT27dundkaij58vwadck5OT0bJlS0RERLg7SerW8+np6RofTF+DW5qsViuOHz+OuLg4r15kWRdIkoR27dohOzsbhYWFtbLEeTriLEh5eTkSExPdnSS3ExoaiubNm2Pv3r0AtGsrfA3et6WmpiIyMhJxcXFuf88mTZqgcePG2L59u3rMl/teSZKwZcsWNG3aFDExMe5OFuFhkBLuJoxGIyZOnIjPP/9cFQDcd9EXsdvtWLlyJYYNG+YRFkeTyYRBgwZh69at6rTh9Ww+5G1wf9aCggKcOnUKnTp18oj8dzetWrWCzWZDRkaG06g3vgD3eZVlGfv370d8fHyNNv3xNSRJwuDBg/Hdd99pdpT0tbYvGne++uorPPvss7VaaFhXGAwGPPzww3j//fdV5VtcUOlr2O12vPfeexg9erTb857wPEgJdxOMMdx+++3IycnB6dOnNb6bvobBYEBKSgqAyyG+PAHGGG655RacPHkS+fn56jFfgysYO3fuRGRkpMsiI3g6ERERaNGiBfbt2+dz0+Ac3qdUVFTg8OHD6NixY72fBeEkJCTAZDIhOTlZzSdfVZAyMjKQnZ2NwYMHuzspAC73SX369EFRURF+++039Zgv5r8kSTh48CBKS0vRo0cPdyeH8EB8U/p4AZIkISgoCEOGDMF3331XKX63ryBJl+NM//Of/8TkyZPh5+fnEcquJElo06YNTCYTDh8+7LPWUEmSUFFRgXnz5uGBBx7wSWt/TTCZTBg2bBi+/fZbNfymLyJJEs6dO4fMzEx07drVpwf71cFiseCZZ57BCy+84LMWWF7WP/74I3r27Ing4GCP6N8kSUJAQACeffZZLF682KdlnyzL+OSTTzBt2jT4+/u7O0mEB0JKuBuRZRl9+/bF2bNnce7cOQCV/RPF1eOeDPdn16ebMYaffvoJUVFR6N+/v0d1uEFBQejZsyd++ukndVpUH8fXW3xF+bS6s/z//PPP0bFjRyQmJvqsxam6MMbQqlUrJCYm4sMPP1SP6+uxNyhoPFxpVeW/evVqdO/eHY0aNQLgewtQa4KiKOjZsyeaNWuGjRs3qsfFdiT2A56Ms9jjPP3Z2dk4fvw4+vfv71H9mCzLGDhwICoqKnDw4EHNcbEOe0P+c9nhrO2lpqZClmXcdtttPun3TtQeUsLdBN+8p2nTpmjWrBm2b99eSfnm53mD9Uofpxy4LOxzc3Px/fff48knn1SPecK78PjJffr0wR9//IFffvlFo3gD3uWeIoarFPP/1KlT+Oabb/D888+rv3nTe90oeB6MHz8eq1atwrFjx1TXHa6Ie0vbk6QrcafFxWCSJGHv3r1ITU3FyJEjVf/w+g7PH0VRMGXKFPz3v/9Vd9AUfZP125p7KjyMIX8nsfy3bduGiIgItG3bVo1X7W54O/Pz80O/fv2wefNmlJWVaXa1QZjcLgAAIABJREFUBLwn/8WQn2LfW1paih9++AFDhw6F2WzWvBtBcEgJdxO8wwwKCsKIESOwceNG5OTkVHKJEDd88HT0myPY7XZs3boVjRs3Vnfp85QOlStXkZGRePTRRzFz5kx1RzNvDVmoz/+ysjIsX74cDz74IJo3b66e503vdKPgedCyZUtMnjwZ77//PsrLyzWh0rzJV1wU/rxuFxQUYPbs2Xj22WcRFRXlNf3IjYbnj8FgQGJiImJjY7Fp06ZK7ccbFECOmHYuW3JycvDtt9/i3nvvRUBAgEe9C9+Jd+DAgcjIyMDvv/9eKf66t8o+7oaSlpaG/Px83HrrrT6/7oCoOd4jZXwQLuTj4+MxePBg/P3vf9cICHHbYk/qQJ0hWi0URYEsyygqKsKmTZtw++23q7uEeZJiy/O/Z8+eGDBgAN555x21oxR3yfOG/Od1hVvCZFnGgQMHkJubi+HDh/tsLOzawMt2xIgRMJvN2LJlC2RZ1uxk6S3lz9PHp/MVRcGyZcvQuXNn9OvXTz3HmwYWNxLeDiwWC4YNG4Zdu3YhJydHLX+x7D29zYjKnSzLqkI4ZcoUDBkyBO3bt1fP85Ty5+mIiYnB0KFDMW/ePI3s86a+V5wxk2VZrUPz58/HbbfdhsaNG6vnenpdIlyPZ7TIeggPHcU7mMceewylpaX45JNP1ON69wJPRhzp83ebO3cuEhMT0a1bN01H5SlTctztwGAwYPbs2Th+/Dh++OGHSlP2npLeqyFajwDg0qVLWLlyJUaMGIHIyMhKSnp9R1x74efnh9GjR2P9+vU4ffp0pfL29PIX+wq+8DYlJQW//vorpk2bprqoGAwG2O12N6fWM+BlzxhDYmIiEhMTMW/ePNhstkoWS08vfw5jDCaTCbIsY/HixbDb7Rg/fryafoPB4BF7Uehl34gRIxAcHIx//etfsNvtmv7JG/oq/YZDDocDs2fPRpMmTXDbbbdpBhTkDkboISXcTXD/Q3H0v3TpUuzatUv1D+e/eXpHJPpYAoDNZsOiRYtQWlqKRx991Kll0d1wgSUqKM899xy+++47nDhxwmv8gYErFi6e1vLycnzwwQdo2bIl+vXrp8l/T7GEeQKij2znzp3Rs2dPLFq0CDabTT3HW8pf/JyZmYk1a9bgL3/5C8LCwjTtzde3rL8eeDsQZxsfe+wxlJWV4YMPPlAHKqJ/vafD0ynLMpKTk7Fnzx68++67qr84ryOe0P553ytavOfOnYtff/1VjVbkTbIPuGINt9vt+Prrr3Hq1Ck899xzHin7CM/C/S2yniK6B/DPYWFhGD9+PL7++mscP35c02DFjlRcfc2/uwJnzxM/8051zZo12L9/P2bPno2QkBAAV4S/p3REot8vT0/Hjh1x66234sMPP4TVaq3kx+cs/10pJKrKfy58uaVz3rx5yM/Px7hx4xAQEAAAmoV7xJXy5/liNptx3333wWg04qWXXtLMHIiClP93R9tzVuf0wt1ut+Ptt99Gq1at0K9fPxiNRq/1c79RiPnFF5QHBgZi5syZ+O233/DFF19oDAv6wbi7+15n/RB/p5MnT2L16tUYNWoUYmJiNC41ntL2nQ0KGzRogFdeeQVbtmxR95QQLcyelP/6Y7x9ybKMXbt2YevWrXjllVcQHh4OQDvwpfZH6KEa4WHccsstGDJkCF5++WWUlZWpDVxUtkQB4UpLjX4gwI8BV6ZsU1JSsHbtWsyaNQvR0dGaczxB+b4afn5+uP/++9G8eXOMGTMGVqu1kiWJTyeKln9XIeafmP9cUZRlGcuXL0daWhrmzJmDsLAwjfsPWWOuTkhICGbOnIkLFy5g7ty5cDgclSzHDodDU+dd2fbE/87anyRJmDBhAsxmM8aPH68OwKi8r4/GjRvj9ddfx6ZNm7Bx40Ywpt1JU1EUtfx5u3J136s3zIgKtizLmD17Nrp3747evXtrZIS+vngibdu2xZgxY/Dxxx/j5MmTALSLM/laI3fmP1C17MvIyMCCBQswduxYtGrVSnOOJ+c74V5ICfcwjEYj7r33Xtxyyy0YO3YssrKyNDGsuWXLHVOlYsfnrHM/cOAAFi5ciCeffBKtWrXyCP/D6mI2mzF16lRER0fjxRdfRF5eHhwORyXLqTuEmqIoTvNfki5viPT999/jm2++waRJkzS+h1yR4AMK8kusmoCAAHz88cc4e/YsPv/8c5SXl2vqMQ9h5w6rojjo5mXP60NxcTFef/11WCwWzJ07F2az2Wt8mT2JmJgYTJw4EV9++SX27t2rWehoMBjUtuSOvldst/qZkYsXL2LUqFEIDQ3FsGHDAFxZLM//OJ5aLyRJQp8+fTBixAjMnj0bZ8+e1cS/5+/B670rrcpiW9PPSEnS5VCwM2fOxAMPPICePXt6pewj3IPxpZdeesndiXAFogUpNTUV/v7+HrOFuh7GGG6++WZcunQJX331FZo0aaKusBZH5HqriCvSxTtBLoy4H9wPP/yAjz76CI888ggGDBgAwLv9T4cMGYK0tDRs27YN8fHxqlsNR/SvdoeVQ7QQ2Ww2rFy5Etu2bQNjDEuWLMGZM2eQnZ0NAAgPD9dY9L25XFyB0WjETTfdhPXr1yM9PR3dunXT5J/euuWqtie6R4hpycvLw/z581FeXo6XX35ZjUlMU981Izo6GhEREfjkk09gt9vRvn37SnkOuN7KaTQaK0XvAYDDhw/j7bffRlJSEr799lts374d58+fR2FhIRo0aIDAwECP8wuvCsYYOnToAFmWsWDBAkRERKBFixYAtH2eu2QfN4SJsyPJycl44403cM899+C+++4DoN03gyCuBinhHghXlLp37w6Hw4HPPvsMoaGhiI2NVX9zdSfE08U7QD5VX1paiiVLlmDHjh2YNGkS+vTp49VuD1xYmc1mdOnSBRkZGVixYgU6duyo+viJPrb8uyvTB1z2/TWZTMjNzcXcuXORnZ2Np556CvHx8Vi1ahW2bNmCTZs2ISUlBTt27MC5c+fQsGFDhIWFebQQ9gQYuxw/vkOHDti6dSu+/fZbJCUlITAwsJJvtTvqOJ/NMBqNOHv2LF566SVER0fjb3/7G8LCwlQroTe2P09AkiS0bt0arVu3xooVK3D69Gl07NgRZrPZbX2v+CzRMp+cnIxFixZh0KBBeOihh3DmzBl8+eWX2Lx5M3766Sf88ssv2L9/PwCgVatWlfouT4PLt06dOiEiIgLLly+Hw+FAXFwcJElyq+zj+Sauv/nmm2+wbt06jB8/Xp2BEM8liGtBSrgHI8sy2rVrh1atWmHWrFkoKipCz549AVxWwvQd0o1G9D02Go0oLy/H7NmzkZ2djVmzZiE+Pl5VwHmoJm/sjLgibjKZ0KVLF4SHh+Mvf/kLmjZtig4dOsBgMKCiokKzS6Ur4FZQh8MBs9mMM2fOYNKkSWjbti3+/ve/o2nTpoiOjsayZctw4cIF2O125OXl4fjx47BarYiPj0dsbCxZaa4Bt3iFhISgb9++KCsrw4svvojExERER0fDYDDAZrO5JR95+ZtMJmzfvh1jxozBo48+ioceegghISGQZVkT9YcU8erD+7jo6Gj07dsXW7Zswdq1a9GvXz/4+fmpbmGunFHS7x4pSRKWL1+OOXPmYNq0aRg8eDDMZjP8/PywbNkyyLKM0tJSnD9/HufOnUNERAQ6d+6M4OBgl6W5NiiKgtjYWNx000346KOPcPToUXWGlfvlu1K2iLt58ue++eab2LZtG2bMmIGuXbsCuDKI8FbZR7geUsI9EJ5WPu0VHR2N4cOHY/78+UhOTkbTpk0RGRmpCltni3ZuZLpKS0uxe/duvPDCC4iPj8cLL7yA8PDwSqvwvdXtQfRBlCQJsbGxuO+++/Dee+/h5MmTaNy4MRo1aqTJd1flP2MMhYWF+PHHH/Huu+/igQcewKOPPorAwEB14JCdnY1du3YhICAA/fr1w+eff45//OMfiIuL09QZ/TuTwlZ5AZzJZELHjh3RtGlTzJs3T7WS80WvYr9yI/NPfE52djaWLVuGb7/9Fu+//z4GDBigiYLCB8lUntVHLH9ZlhEUFIRbbrkFZ8+exUcffYTo6GiEhYUhKCio2gsDa1NHuALucDhw7NgxvPnmm0hNTcXy5cvRrl07jYKenJyM7OxsNG7cGBMnTsSSJUtw5513wt/f3+MXCvJ08XocGRmJQYMGYf369fjyyy/RvHlzREREwGKxaHy0r+d9apP//Lry8nIcOHAAM2bMgMFgwNtvv40mTZpUWiTrrbKPcD2khHsoYmckSRKCgoJw9913o6CgAGvWrEFGRgZCQkIQERGhWain72T0PuRVKWDiM/WLzvh1drsdv/zyC7744gvs378fY8aMwahRo2A2mytNEXpqJ389iB0q/wsJCcHAgQNx/PhxfP/998jNzUV4eDgaNGhwzcWOYhnw7xxnx6vK/6KiImzfvh2ff/45Tp8+jQkTJmDQoEGVXA+io6Px6aef4uabb0afPn3w66+/omPHjggJCdFMlYpKhOhrWt/Rl73BYEDr1q3RqVMnbNmyBZs3b4bdbkdUVBT8/f0BQBO1wVl5X6v8q6oT/DdFUXDhwgV8//33+PLLLxEUFIRp06YhNja2UnujcqwdYrkDl6Mm9ezZEzExMfjqq6+QlpYGk8mkzoqICwWr2l/gevte8Zh4XFEUpKenY/Xq1fjhhx/QrVs3vPjiiwgKCtIofxaLBadOncKBAwfw3nvv4ciRIwCANm3awGw2a3yb+f3FhZqe0G/rZV9AQABuu+02mM1mfPPNNzhx4gQCAgLQuHFjjewTByLO7lkb2acoCn799VesWrUKycnJuPvuuzFhwgRYLBafkn2E65GYO5b5uxix8SmKgkWLFiE0NBR//vOf3Zyy6mOz2ZCZmYmtW7di+/btaNasGcaMGYO4uDgAVzpVUYkQfQhFZctZx6NXJHhYqL1792L58uWwWCwYOHAg+vfvj7CwMM11vg5jDFarFSdPnsSPP/6ItLQ0dOrUCaNGjUJ0dLSa79wSCWjLQ+zwryZ0xUV43Pq1efNmrF27FlFRURg6dChuueUWVQEUrwMuK4S9e/dGr1698Morr2DVqlXYsWMH5syZg2bNmmnSpL+2PpRjTVEUBRUVFUhLS8OmTZuQkZGBIUOG4N5774Wfn59abtxdBLjivy1OZet9Rp0pAvw6SZJQVFSE1atX4+eff0ZcXBxuv/12dOzYUXWNIKXbNciyjKKiIqSkpGDLli0oLi7GqFGj0LdvX03UJNFVRWxr+n6BU1X5c7eLM2fOqANvHsK2ZcuWaqQe/aB62bJleOutt5CSkoLMzEzMnz8f/fv3x1133aV5hjOl1ZPbv8PhQE5ODrZv346tW7ciICAAjzzyCDp37uxU1nHE9qTP/6sNlnlklt9++w1Lly6F1WpF//79MXDgQDRq1EizUJQgagyrByiKon6WZZnNnz+fffHFF25MUc1wOByMscvvYLVaWWFhIVu6dCnr3bs3Gz16NEtOTmayLDNZltXz+Wer1coYu5wXDoeDKYrCFEVRf+fwYw6Hg5WXl7PVq1ezIUOGsDvuuIPt3LmTFRYWMofDoaalPiHma0VFBTt//jx74403WGJiInv66afZwYMHmSzLan3j+cwYYxUVFeo9+Dn8T/8MRVGY3W5nFy9eZB9//DHr2rUr++tf/8pSU1NZSUmJWj4c/X0cDgf78ssv2fr16xljjJWXl7OVK1eyv/zlLywrK0vzPGd1gKiMmMd2u52VlZWxQ4cOsSeeeIK1a9eOvfHGG+z8+fOatsXLSFEUZrPZGGNX2mRV5c+vsdvt7MSJE2zWrFmsffv2bObMmSw9PZ1ZrVZNGydcg9iubTYbKykpYTt27GAjR45k/fr1Y8uXL2dlZWVquYhtVOwvxfIX78nhv9vtdrZ37142btw41rNnT7Z48WL2xx9/MLvdrulXGGOVPh85coR9/PHH6r2OHj3Khg8fzrZs2XLV99KnxZPg+aooCrNarayoqIitWbOGDRo0iN11111s48aNmnYhfrbZbJo2Kco+fd7x62w2G9u0aRO7++672aBBg9iGDRtYfn5+vZV9xI2DLOFehn6BCGMMJSUl2LFjB5YuXYqKigr06tULSUlJaNWqFQICAuDv7w9/f391db+4yluWZdhsNpSVlal/R48eRVpaGnbu3InExEQ8/PDD6NKli3ot01nq6pMljumsKowxFBQUYP369fjqq68QEBCAnj17IikpCdHR0Wr+BwQEwGg0avKQb/5htVpRXl6OsrIyFBUV4eDBgzh06BDS0tLQp08fjB49Gm3btgVQ2WeV57/esl1aWgrGGAICAtRzFy9ejFOnTmHy5MmIjo52OitCVA0TLJZiO7xw4QJWrFiBLVu2oGXLlujevTsSExNVdxX+J5Y/n2FyOByoqKhAWVkZKioqkJeXh7179yI1NRUXL17EnXfeifvvvx+RkZHqs3k6KAqKa3G2ONJut+Pw4cNYvnw5Dhw4gKSkJCQlJaF9+/YIDQ1V276fn59a/vxesizDbrejoqICpaWlsNlsOHfuHPbt24eff/4ZRqMRo0aNwtChQxEUFKQJTcj/nMUtdzgcKCsrQ0hIiJrm9PR0jB07FtOmTcOwYcMq7aTqDThbHFlWVoY9e/Zg6dKlyMzMRJ8+fZCUlIQ2bdogODi4kuwT89/hcMBut6O8vBylpaWoqKhAeno6Dhw4gO3bt6Nly5Z4+OGH0atXL/j5+WnKnlvcyfebqC2khHsRXGnigpg58e87deoUfv31Vxw6dAhFRUUIDAyE2WxWd88zm83quaIiYLPZUFFRAYfDgYYNG6JTp07o3r07wsPDYTQaNUqe2AnWJwVAdPMR85yXhcPhwIkTJ5CWloZDhw7B4XCoQoD7DorToXwQJOa/LMto0aIFOnXqhC5duiAkJESj9AHQRMDQDwg4zpS14uJiLF26FGfOnMGUKVPQtGnTSu9Yn8qzOoiKjt6dh+dzSUkJjhw5grS0NJw8eVLd3CU4OBgmk0lVfPSuXna7HVarFVarFYqiICEhAZ07d0a7du0QGBioPkP03+fuLuJx4sahX4TJ+15eLwAgLy8PaWlpOHjwILKysmCxWGAwGBAUFASj0ahxUWKMaYwgVqsVNpsNZrMZnTt3Rrdu3dCyZUt10yW9m5ozOeCsH+BpBYBTp07hzTffxKBBgzBy5EiNO5tYtz0RfXx8Z7IvMzMTBw4cwMGDB5GXl4fAwEAYjUY1tKiY/7zt8fznsi8kJASJiYno3r07GjVqpJF9+v7VU/OK8C5ICfciquqIqirCgoICFBYWoqCgAMXFxSgvL4csy1i0aBH69u2Ldu3awc/PDwEBAQgJCUF4eDhCQkJUq4vY+eg7PE596oj0+Q9U9qEXycvLU/O/pKQEVqsVDocDU6dOxb/+9S+YTCZYLBYEBAQgNDRUzX9uvRYFvJj/el9ELtBNJpMmNJYzhbG0tBQrVqzAtm3b8MYbb6B58+aaNNen8qwOVQ1wqjpmt9uRn5+vln9ZWRlsNhvsdjseeeQRfPrppzCbzbBYLAgMDER4eDhCQ0MRGhqq+peLzxXvT76orsdZ+TurB5yysjIUFBSofXB5eTnsdjvOnDmD7777DhMmTIDZbIa/vz+Cg4PVth8aGqrZCE2/YFosd3FQxs/h+zeIv4tpPXbsGD744AMMGjQI99xzj+a+nmwVr67sKyoqUtteUVGRuvPtxo0bYTab1ZCOAQEBaNCggZr/DRo00FjbrxaBhdofUReQEl4PmT59Oh588EEkJSW5Oyn1kt69eyMlJcVtz5dlGatXr8Z3332Ht956C9HR0Zrf9RZ//RQwUXMYY2jSpIm6mylRvzh69Cj+/e9/46OPPnLL8xljOHnyJCZOnIhp06Zh4MCBmt/4f/3GNL6icH7yySewWCx46KGH3J0UggAAkFQlCBfiCWNeo9GIe+65B71798a7776LzMxMjdVdb+33dCsZQRDXhyRJaNu2Ld555x3Mnj0ba9euRUVFRSULu97yTxDEjYEkK0HUQ0wmEx566CE0adIE77zzjmqZ1Q8SxMVgBEF4P4wxxMfHY+nSpfj+++/x3XffoaKiQv1NPM+ZjzlBEHUHKeEEUQ+RJAnBwcEYN24cEhISMH36dGRkZGjik4vnkjWMIHwD3pZbtWqFyZMnY9euXVi/fn2Vfu7U9gnixkFKOEHUQ7iwDQgIwOjRozFs2DDMmjULf/zxR6WFXXqlnCAI78ZgMMBqtaJdu3Z44oknsHDhQuzYsUMdcIsDb2r7BHHjICWcIOohPJyZwWCAxWLBAw88gF69euGtt95SXVMURXEaEYcgCO+FD6p52NT27dtj3rx5eO6557BmzRrYbDa17Ytb2hMEUfeQEl7PEBffEa7HU/Jd9PXkAvnhhx9GixYt8OabbyIrKwsGg0ETGUFcvOnsO3FtPKX8CffgCeXP27SoYMfFxWHlypXYuHEj1q1bB5vNprZ/jr7t648RBFF9SAknCBfgLM6wuwUYn3LmgjY4OBhjx45FXFwc/vGPfyAjI8NpGsUd+zxBqfAGrhVnnKhfeEL5i5tHAZd9xJ955hls374dGzduhCzLlfYj4HjTDJmzSC+ekP8EAZASThCEQEBAAMaNG4c777wTM2bMQE5OjlPBpQ9jSBCE99OuXTs8++yz+PDDD7Fr1y7NuhARvpMktX+CqB2khBMEoSJJEsxmM0aOHInevXvjvffeQ1ZWVqVY4fptvAmC8H6MRiPatGmD999/Hy+88ALWrVuH8vJy1YWFMabZuZcgiNpBrYggCBUuaM1mMx5++GFER0fjzTffxIULFzQuKCSACcI3YYwhLi4OS5Yswfr16/H999/DarVWUr7JHY0gag9JUoIgVPj29AaDQfUR79ixI6ZOnVopjjhFTiAI30Kc8WrdujWeeeYZbNu2DevXr1eP8/ZPrigEUXtICScIQkUUtMDlxZqPPfYY/vSnP2HWrFmqjzht4EMQvofBYFCVa0VRkJCQgEmTJuGDDz7Ajh07ANDmXQRRl5ASXg9wFlqKOlHXUtXiRk/FZDKpwtZoNOLee+9Fz5498d577yEnJ6fSVLS4SMvhcACgCAQiYvl7crkTrsGT6wD3/+Z9QNu2bfHRRx9hxowZ+O9//wubzaaeJ0ZKAqDOkHlS23eW156c/0T9gpRwgiCuicViwUMPPYSYmBjMmTMHmZmZmm2uResYF84k6AjCN2jbti0WL16MjRs3Yu3ataioqNC0cTFSErV7grh+SAknCOK6aNCgAR577DEkJCRgxowZOH/+vEbwciuYuHCLIAjvhzGG+Ph4PPHEE9i+fTs2bdpUyeJNSjhBVB9SwgmCuG6Cg4Mxfvx43HHHHXjhhRdUH3HugiJaxkgYE4RvYDAYIMsybrrpJkyZMgX/+c9/sH37dnWhtizLmohJ1PYJ4vogJZwgiOuCK9uSJOFPf/oTkpKS8O9//xt//PEHTCaTeg5QeXMPgiC8F8YYTCYTHA4HYmNjMW/ePLzyyiv47rvv4HA4NC5oFDmFIK4fUsIJgrhuuLIdGBiIRx55BI0bN8brr7+OzMxMACABTBA+CG/TRqMRBoMB7du3x6JFi7B+/XqsW7cONptNs0iTLOEEcX2QEl4P0HeI1EG6D2/e7l3vahISEoLHH38cnTp1wvPPP4/MzEyn4Qv17+qN715XUNsjvLH9c1cTsQ9o06YNnn76aWzduhWbNm1So6qIYQ6B+t3eCeJakBJez6AOkagNohAGgKCgIIwbNw4DBw7ErFmzkJ2drfmdf+YWMtrunqjPeHvdFwfYkiQhISEBEydOxDvvvIPt27dDlmX1N72s8YTQhd6e/4TvQUo4QRC1wmAwYPTo0UhKSsK8efPUOOKi0BWnqN0tiAmCqBskSVJdU2bPnq1uca/fUZfvxEltnyC0kBJOEEStYIzBbDbjoYceQnR0NObOnYvMzEzNZh7cMsanrAmC8A0URUGrVq2wcOFC/Pjjj+qGPkajUVXEufItRlAhCIKUcIIgaglXqoODg/Hoo4+iffv2ahxxvfsKLdwkCN9CkiTIsoy2bdvi8ccfx+bNm7Fp0ybNOQaDgSImEYQTSAknCKJWWK1WGAwGGAwGhISEYPz48bj99tvxwgsvIDs7W40lzCFLOEH4BjxGuNlsBgAkJiZi6tSpePPNN7Ft27ZKLikEQWip90p4XXcMntjReGKaCN/BYrFoFl4aDAbcfffd6NatG/7zn/9oLOIA1UeifuNL9d9gMMBkMkGWZdXljLumvPrqq1i3bh3Ky8sBVD34duXsmC/lPeEb1FslXD9CFxeQiQpFcnKyutBEf46iKCgtLXV6Lf/ubsQ0eUJ6vB1ndaC6+KIlmIcm4z6fQUFBGDt2LGJjY/H6668jOTlZc64eX62fjDE1YoQYHcYX35WojKIo6gJlX44OZDQaAUDtA9q1a4cFCxZg586dWLx4MQoLC52GLdT3p3pq0y+Ii8M9UTbXJc5kkTO572vv7QvUWyVcH0KN+7XpfVf/+c9/oqSkRF1cJnaiaWlpWLBgQaV78es9xQdOTIsnpcvbcLYJhS8K1LoiODgYjzzyCB588EEsXLgQH3zwAYqKijTn6Df38EUhwfsNcYEqUT9wtoNsfSn/1q1bY/LkySguLsbkyZNx9OhR9d317V1csCkOXGrTv4p7MvD8169R8SXEdxL1FF/uW32Beq2E61du8895eXnYsWMHLl26hAsXLsBkMkFRFBw4cABbtmzBmTNnoCgKtm/fjp9//hkXL16EoijYu3cvNmzYoG5a4gkrwXlECqPRqG4vbDabfbITutHolSlftWrVJQEBARgwYADeffddnD59Gn/961+xb98+9Xf9xj4i3Iosy7JXDhx5mmVZVi2EjDEYjUaqN/UAPgOiKIrL7t/vAAAgAElEQVSmzD1BLrgCSZLQokULPPfccxg1ahQefPBBvPLKK8jLy4Msy5poSaIM5m2ltgozfwYATf77UtvTW/d5nyNGprLZbOr5vvTuvoLJ3QlwJ7wz5JXVaDTi/PnzmDVrFpo0aYLPPvsMJSUlKC0txb/+9S/YbDZERkZi0aJF6sg+NzcXJ06cwFtvvQV/f39YLBYsXboUL774IhISEjyi0nM/XZPJBIfDoQoHonpwpZsr4gaDAbIsq1OxhBbR6hUWFoY33ngDKSkpmDt3Lho1aoRevXohISEBUVFRCAkJQUBAAMxms5qfkiRp8tbbLDm87ZvNZo1w5MoBWcV9Gy5feKg+3mfUF6s4lzuSJGHw4MH4+eefsWDBAkyYMAFdunRBnz59EBkZidDQUISEhMDPzw8mk0mjgNemnejlu2h086X2x2WSs8GdJEnw8/PTvK8n6CTEFeq1Es4rpLij39GjRxEWFoaXXnoJxcXFGDp0KBhj6N+/PwwGAzIyMqAoCkpKSjB8+HAYDAZ07doVxcXFMJvNOH36NBhjuHjxokdYPHgaxA5RlmUsX74cW7dudXPqvAs+eLFYLHjmmWfcnBrPh9c1o9Go1sP+/fujd+/eSE1Nxe7du7F69Wr4+/urCje34PjSQk7RJcFgMKC0tBRz5851c6oIVyHKl/z8fBw4cABz5sxxd7JuOEajUXXxFJXEiIgIrFy5Eq+++ipat26NuLg4NG7cGA0bNoTZbK5kHa+tOwUf+ALAr7/+CoPBgLNnz9bBG3oOzvIrPDwcnTp1ws0334yAgIBKLjmEZ1CvlXBnI+GioiIEBQXBbDYjPDwc/v7+KCkpwY8//oiYmBg0a9YMYWFhAK5MM5aUlGD9+vWIjY1F06ZN0aBBA48adXILDHC5QxozZozPdUKugAvS119/HU8//bRHlK2nI7YDLoxNJhN69OiB7t27o7i4GLm5uSguLkZpaanT3fZ8AVERs1gs6N69O9WfeoIoZ86fP4+TJ0+iR48ebk7VjUcvA3mb7t69O+65557rurYu0wEABQUFMJvNPpX/+rzKz89HRkYGfvzxRyxevBgtWrTAnDlzEB8fT32OB1KvlXCg8iYiCQkJ+Prrr5GTk4P09HRcvHgRZ86cQXFxMWbNmoXi4mIsX74ciqIgMDAQ5eXlSE9PR3l5OR5//HEUFBTgs88+g91u95gKL6bDYDAgMTERiYmJbkyR92K1WjF//nwAV/dnvhbcT1i/KNFT6kxdIc4G6fNLkiSEhoYiNDTUHUlzG2azGYMHD4bRaPTJMieq5vjx49izZw8GDx6saf9UD1zD+fPnYTKZMGTIEE2+1zb/uaVfb43miH7b4uy7JEmw2Wzw8/PTnO9wOGAy1Vw94/pMSUkJpk2bhu7du2P16tXqe1Nd8xzqvRKup0WLFhgwYACmTJmCqKgoDB06FAkJCdi9ezemTJmCwMBAdOzYEf7+/oiLi8PHH3+MQ4cOISYmBtOmTYPZbEZCQoI6/eMJLilE3UGdF0EQBMHRK/JiGFLxmH5BNv+dK9uiu4jJZNIsuqyuHsGf06BBA8yfPx9du3bFa6+9hiZNmuCmm26qi9cm6ghSwv8HHx0GBgZi3LhxeOihh1RfVcYYZs6cifLycgQHB2saxurVq9V7lJaWIjg4GID3+7ESBEEQBHF1uIKtD3GckpKCnj17wmg0qotzRSt0aWkpgoKCVPc7/UJSQOvPXhP4fcaOHYsjR45g9erViIuLg8Viqc0rE3UImWmdIEkS/P39AUBd1W4ymRAYGKg2IoPBoIb8Ay4vQuG+4OI5BEEQBEH4HqLCzC3dfGHp22+/jZKSEvU84Io+sWfPHixZsgRA5Sgu4r3F32sKT9Ndd92Fn3/+GdnZ2bW6H1G3kJaoQwxnJMZ15SEM+W9cMbfb7WoYNXExma+EPyIIgiAIojJiGFVFUZCbm4uNGzciPz9f3T/EbrfjwIEDWLduHXJzc+FwOLBt2zakpqbi0qVLcDgc2LdvH3744QdkZWUB0Lq41EaP4Nc7HA40bdoUsiyjsLCwTt6dqBvIHUWHPmShuNjC2chU9N0SF1rRRi4EQRAE4buICvLZs2fx0ksvoXXr1vjqq69QXl4Ou92Of/zjH2jQoAH8/PywcuVKTJ8+HUePHkVWVhbS09Px5ZdfIiwsDAaDAcuWLcNLL72Edu3aqQa/mu5DwS3gjDH4+/ujUaNGiI6OhsPhqKvXJ+oAUsKd4GyFs7MIFqKSrl9hTa4oBEE4gwbnBOEbiAa7I0eOoGnTppg5cyby8/Nx9913Q5ZlDBkyBBaLBSdPnoTdbofVasXtt9+OvXv3olOnTsjNzUVgYCBOnDiB/fv3o6CgoNL9a9NniIs0IyIiaIbewyAl3An6Cu9MGRc/k1AlqsJZB0r1pf7g6yEoiaujL3+A2r8rcZb/dX1/Tnl5OQIDA2EymdCwYUP4+/ujoKAAGzZsQMuWLdGyZUuEhITA4XCo1u2ioiJs3LhR87szt9aa1hnxOrPZTAsyPRAy1xIEQRAEQVQT0fU0NjYWJ06cQF5eHlJSUlBQUID09HSUlZVhwoQJSEpKwsWLFyFJEoKCgmCz2XDs2DGUlZVh0qRJ6NKlC/Ly8lQlnPty06y6b0OWcIIgCIIgiGoi7kbdsWNH9O7dG1OmTEFkZCT69u2Lbt26Yf/+/Zg0aRICAwNx0003wWw2IzExEQsXLsSZM2cQExODCRMmIDQ0FB06dIDFYlE369Fv6Eb4HqSEEwRBEARBVBPRJ9xisWD8+PEYM2YM/P39VeX5xRdfVGOCc2VaURR8/fXXqtWb/65fhEn+276Ds0g3jDFSwgmCIAiCIGqC6OvPlXHRl9toNCI4OFizhkzcHVOSJPV3cUMf2nHbs3CmQFf3u7NY8KSEEwRBEARB1ICrKcp2ux1ms1kT+liWZZhMJlXJlmVZDW8MXFbMuTsKV9ZJGXcviqKo+8NwZFnWLKLVf+fXiBgMBk1ZGgwGUsIJ4kZSlS+fs2lG8vvzPaqKpkTTzPWDqiJrXe08ou7Q539V+VxX+S/eR1S4xLbPXU7E3bb16TOZTJpziJohWp/1CrR4jvhd/ztHX3/0341GI0wmU6Vz9GWor2ukhBMEQRAEQRAeg96KXJU7x7W+Xw96xdhoNDoNLawfZF3rHGdKuB5SwgmCIAiCIAiXwF07rqYky7KsiQyjdwcBoO4qKn7Xn8MVYb3VWvxdvyCWn++KGSpSwgmCIAiCIAiXUFFRUWMfalFhNhqN8PPzU7+LCre3uHiREk4QBEEQBEG4DGf+086U56utq7jW+d4AKeEEQRAEQRCESxAjxnCqUsJ9HVLCCcLFiBs8EPUTKvv6DZW/+6gveS+GPhTjlnP0/taujMRiNptd9ixPh+LfEARBuJD6ZukhCE+jPijiBoNB3fyHvy/3ubbZbOqGQIwx9VzC9ZASThAEQRAE4UOIFnAe99pgMIAxBj8/v0oKOsUkdw+U6wRBEARBED4K3/wHuDwTJ8uyxhWFrODug5RwgiAIgiAIH8PhcOCzzz5DWVmZeoxbyH/77Tfs2bOnXi6G9CRICScIgiAIgvAhFEWB2WzGL7/8gpCQEMyaNQtlZWW4dOkSRo4cicGDB+P8+fOqO0p98JP3RCg6Sj1Dv0K6vuCp7+2JaSIIgvBleL/ryv7X1TKIL7Z87bXXsGLFCsyZMweSJOGjjz4CYwz33nsvhg0bpnFVIVwPWcJ9HL76Wb+1a31BXJTCv7vD/03M86rCRRG+S1Xly+sAlX/9hAbhN55rta0b1fbcLXu5m0loaChmzpypCY3r5+eHRx55BIGBgTfMEs5lr3h/8j2vDCnhPo4YAJ93CvWt4+fb2PLFKPXt/QmCIAjXwmUNt0i7Q/ZyxXfcuHFo0aKFerxLly64/fbb1XTeKEj2XhtSwn0ch8MBh8MB4HKDqG9hiHijt1qtMBqNamdIEARBEDcKLnt5HG53yF6u/IaGhmL27NnqoGDFihWaDXMcDkedK8j8fjabjWTvVSBnIB/HbDarU1D10QrO35l3OGJcVIIgCIK4EXDZC0CNye2ONHB3zKSkJHTu3Blt2rRBq1atNO4pJpMJDocDRqOxzp7NZS/3OSfZ6xxSwn0c0QeLN4INGzYgOTnZjalyHbzR6zuAl19+GX5+fu5KFkEQBOHDOJO9O3bswKZNm1zyfHETHkVR4HA4YDAYYDQa8fzzz6sKd1Xb2tdVGvSyd/r06QgPD6/T53gzpITXExRFUUek27ZtQ0JCAtq3b+/mVLkW3iFMnz4dNpuNlHCCIAjihiLK3l9++QUNGzbELbfc4vI0GAwG3HvvvZWOcW7kTDm/9+uvv47CwkJSwgVICfdxeCPj/3kj69SpE5KSktyWLncSFhbm8mfWNzcgQguVP0G4B3e1vapkb4cOHdCrVy+3pMndNGzY0N1J8Djq1yo9giAIgiAIgvAASAknCIIgCIIgCBdDSjhBEARBEARBuBhSwgmCIAiCIAjCxZASThAEQRAEQRAuhpRwgnAxFCmjfkObVtRfaOtu90J5T3gapIQThIshJax+Im4cRdQ/qM27F8p/whMhJZwgCIIgCIIgXAwp4QRBEARBEAThYkgJJwiCIAiCIAgXQ0o4QRAEQRAEQbgYUsIJgiAIgiAIwsWQEk4QboBW6tdvnJU/1Yn6QVXlTOXvXij/CXdASjhBEARBEARBuBhSwgmCIAiCIAjCxZASThAEQRAEQRAuxqeVcEVR3J0EgiAIgiAIgqiEzyrhiqLA4XC4OxkEQRAEQRAEUQmfVMK5Ak5KOOEpXGvlvSRJLkoJ4Up4uTPG1DJ2VtZU/r6J2O7F8qdIHK6BMabmtSRJTvOe2h7hTkzuTkBdwxiDLMuw2WzuTgpBaJQv/XGCIAiCIOovPqWEcwu43W4HAJjNZjeniCAIgiAIgiAq4zPuKKILCmMMJpMJJpNPjTEIgiAIgiAIH8EnlHDuguJwOKAoCoxGI8xmMwwGn3g9giAIgiAIwsfwelMxYwyKosBms6kWcD8/P1LACYIgCIIgCI/FqzVVbgG3Wq1gjMFoNMJkMpEC7gLEhYViBAhn54gr1GvzrOt5ZnXveT33qOq5NXkvWpBZv6iqTTiDojT4LrXtr4iaI0ZEcWX+1+Wzrvde/Dy+R0p15Jyze1F9vfF4rSWcMab6gIsuKEajsdJ5PEIFr5hcSa+rClaV8KwqMoYrEd+fYzQaa5Quh8OBQ4cOoWnTpoiKitJ0boqigDGG48ePY/fu3WjTpg2io6MRFxeneb6iKE5DRdntdnz77bcAAIvFgsjISHTt2hVBQUHIyspCSkqKep927dqhQ4cOMJlMtcpjffg4WZbBGIPBYIDBYICiKDAYDJoQVwDUY2Leimngn/X3F9/dWVrcXVc8HW8VCHoFwFUh6q5Wp7w1L6uD+O7uaF96Behaz6fQhTcOriNwnJXHjagf+vLksqWm97Jardi5cycsFgv69u2r1pmDBw/i4sWLGDBgQKX7M8ZQWlqKzZs3Izc3Fy1atMCQIUPUawsKCvDjjz+iuLgYcXFx6NGjB/z9/fHHH38gJycH7dq1g8ViqXEeEFfHK03Gog+4LMswGAyqAl5VQ5JlWa10XNniClFt/3ia9CNHT1SqxMFIdamoqMDq1atx6tQpTUOXJAkGgwHFxcVYtGgRsrKysHHjRiQnJ1dS0kUFXMy/srIyzJgxAxkZGfjtt9/w/vvvY+LEiSguLsbhw4excOFCZGZm4vfff8fUqVOxdevWWuUDjyEvdsYrV67Erbfeip9//llVxrniLJarzWbTvL/BYKhUH3i+6L+TkL06YjtyFs/X2/54PeHfedvT9w03ol7w+sbbnpi/7s4XV/y5uy/W93XAZTl0PdfQX939AVrDm3icH7tR6OtgTa3L/FqbzYa3334bEydOVI/JsoypU6di3rx5sNlskKTL/Y7D4VDfc/z48di5cycYY1i2bBlmzZoFADh58iTGjh2L33//HZIkYdmyZZgzZw4kScKJEyfwzTffoLy8vG4yg3CK11nCuVCxWq3q6NbPz69KBVwcAdvtdvX8uu6U+f2cWZ49Bb1AqC58RG2325GRkQGr1YqsrCwYDAYkJSUhIyMDmZmZGDx4MHbt2oWysjJcvHgRDocDTZo0gdVqRXp6OiIjI5Gfn4+4uDgUFhbi0qVLCAkJAWMMTz/9NPz9/WG32zFu3DisXr0ajRo1QkhICCZPngxFUfDJJ59g48aNGDp0aI3fyWw2q++ze/dujBgxAjabDePGjUPnzp0hSVcs1/w/H8hZLBY4HA74+flBURTVYi7mkz6/bTYbjEZjjWch6gtXyxtvHMBwgc/7Hv1MnaueL34HvDMvq0tVdcnV/TOXCdxdUj9AcPUMSX2C99t8vZgrXVWdKeC1qXcGgwGyLKOwsBAxMTHYuXMn+vbti5MnT0JRFBQXFyM3NxeSJKFZs2ZQFAXHjh1DQEAANmzYgLNnz6JBgwa45557cP/996OsrAwLFy7EkCFD8NRTT8FgMOC+++7DyJEjsXnzZhiNRlRUVNRFVhBXwass4dwFhfuA80WYV1NseMXl5zPG1DjidZmuqjpPvWXP1X/6dHCrWE1H4/xeK1aswIQJE7B79268++67WLt2LbKzs5GTk4MzZ86oeb5z506sWrUKNpsNf/zxB9555x0UFxdj6tSp2LBhAz755BMkJyerZcjT5ufnhzvvvBNpaWkwGAwoKCjA119/jZUrV2LTpk3o16+fmpaakJOTg88++wz33Xcfhg8fDrvdjtDQUPTq1QvBwcHqDAu3iEuSBKPRCEVRIMuy+plbHfT5JNZHRVHUxcJcaa9KEPPP9fXPGfw3d1vUavLH2xvfs0BvldaX/43KS/1xd+eLK/7E99bXI1fB2zrvL6oqf46788yX/nj+88GPsxkhfTnUZfvT10F9+VcHfg+DwQCTyYQnn3wSGzZsgKIoWLNmDZ544glIkoSTJ09i5syZAC5buT/99FNIkoQ77rgDs2fPxvLly3H06FGsW7cO+fn5yM/Px6BBg1TZFBYWhrvuugtr1qyplE/EjcGrLOGiCwpvWNdjWTQajZpGoSgKPv/8c6SmptZZ2hi7PC0ky3KN3T1uFLzxcoGQnJyMBx98sFb3VBQF3bp1w/Tp07F8+XIcO3YMzz77LLp27Yr+/fvj66+/hiRJGkXVaDRClmVER0fj1VdfxYQJE3Drrbdi3LhxGgshLyeuBNvtdpSVlSErKwsVFRXw8/PD4cOHMWLECFVBri6TJk3Chg0bNG5KRqMRu3btwoEDBzSduehKI8syfv/9d0yaNEnjN341NwOTyaQOSgAgPT0dU6dO1cSxd7Vy4Mn4Ul7w8ufuTwCQn5+Pv//975VmT270O/N6Xl/QDzjc9e68f2CMobCwEGlpaZgyZYqaNp5WX6nznoQo8wHg2LFjkCQJ+/btU8+50XkvysHU1FR07ty5xvfi7zFo0CB8+eWXSE9PR3p6Ov7v//4PH374IRITE1FWVoZDhw7h9OnTiIqKQsOGDfHBBx9g27Zt+P3337Fz504EBATgiSeeAHC5ftrtdnV22Gw2o6CggOqji/AKJZyPxvQ+4Hxq72rwzldU7O666y507dq1TtMoSZKaJnHhnqdUZHGRYXFxcY3TJVpxY2JiwBiDv7+/KuBEFw7gykwEAHUhrSRJCA8PR1ZWFgoLC1X3IH1+HT58GM2bN4fRaETz5s0xYcIEKIqCgwcP4q677sKMGTM0grY6DBs2DN9//736XMYYIiIi8PDDD6Nhw4YALg/6SktLYTQaVXcCxhhGjx6NkJAQ9V4OhwM2m02jaDmzOPK8GTVqFIKDgzVp9qS64inwAZjNZlMHS96EoiiqBU5M++jRoxEcHOyydIh1y2q1wmq1uuzZ7kRUvHkYW7vd7rK2Jrqsiel59NFHERAQ4HQmxNvquCcjy7KqWIpl7u/v73Q37RtRL7jhhsvexYsX1/gZ3JgmyzKCgoLQoUMHLF26FJ06dYLZbIYkSQgMDMTIkSOxYMECNGrUCH369MFvv/2GdevW4eWXX8Ydd9yB/Px8DB8+HHfddRckSUJmZibi4+ORl5cHg8GAtLQ09OzZU7N2jrhxeI0SbrfbVSXnehVwjnieJEmIiYlBTEzMDUmrNxAVFVUjqxB3qwCgKqbcEq0XIlxhDQoKQk5ODi5cuIDNmzfDZrOhpKQEEyZMwNtvv420tDSsX78ew4YNgyzLyM3NhcPhwC+//IK1a9di9erVOHbsGKxWK/Ly8mC327Ft2zZ06tSpVp3Dww8/jFGjRmH27Nn49NNPUVhYiDNnzmDz5s147bXXNBYUcXrT2TSjaNEU/cf1lm4O/91ZJB/xHP3zCIIgCO8lOjq6RrKXyyAuVyRJQpcuXTB58mR8+umn6j0NBgPuvfdezJo1CwMHDsSkSZNQVFSEhQsX4pZbbkH37t1x/PhxFBcXo0OHDrjjjjvw5ptvokmTJti1axcWLFiAsrIyvPXWW/j1119ht9tVuWsymVTjEe1GXnd4fE5yFxS73a6xNpNi4nrMZjPat2+PqKgoxMXFISAgAIqioGnTpurviYmJaNCgAdq0aYPIyEh06dIF+/fvx2uvvYb4+HjcdtttOHz4MAYNGoT7778f8fHxSElJAQD06NEDkydPhslkQvPmzbFy5Uq0bdsWBQUFCA0NxYQJE2A0GtGiRQu8//77qoWhpnUhNDQU7733Hp544gm8+uqrOHToEPbv34+MjAy0aNFCVZRFVxTR9YT7G/LfxQWa+uNiGsXZBH3IRmfhM0kRJwiCqL9wg4+fnx/69esHxhg6dOiAv/3tb2jWrBksFot6PCgoCLfeeqsqi0NCQrBmzRrMnz8fn3zyCRo0aIDPP/8cMTExGDlyJEwmE+bMmQPGGHr16gWbzYZt27ahdevWKC0txfPPPw+DwYCoqCg89dRTSEhIUNNEcqn2SMyDnQS5Aq63gNNmPLVj2rRp+POf/4ykpKRqXXc1/2feIEW3EnEazm63q1Z08Rr+O1do9e4sXJnVp0O0Tle3IxgxYgRWrFiB4OBgjQV///792LNnD+644w60aNFCc+/ff/8dp0+fRu/evREaGgrGGC5duoS9e/eiR48eiIyMVN9JTKfValXDZ/K8O3HiBOx2Ozp27KhxhxHfR8xjZ646BEEQhHfxz3/+E507d8awYcOqdZ0op7hxiMtXkcLCQqSkpOCtt97CkiVL0LJlS1V2cHcsPz8/mM1mzfVczzKbzer6q/bt21cyIPG01FT2PvbYY5g9ezZiY2OrdZ0v45HaLFfKeMXgiwVIAXcvon+3vnHycuG+uw6HQ7PRDfdZ4+iVaH3ccXExKXCl4fP/ohtMTRbC6jsPSZKQlJSEJ598Es2bN9ecI0kStm3bhunTp2P37t3qs3fu3IkZM2YgKytLY9XmaTx16hQWL16MgoICTd7l5uaqC4TEhav6wQu5pBAEQRBigAD9/hWi0UaWZZw/fx6vvPIKmjVrpsocm80Gs9mMoKAgNUqcuIeByWRCQEAADAYDGjRogLi4OE2ccVEOizPBRO3xSHcUbjnloQT5yI0UEfciWrb1EWc43Jot+juLYSJFJROAGvJP3P2S+58B0HQWYrgk0eJc04GZ3m/b4XCoFmu99bmkpAQRERFITU3F4MGD4efnh02bNiEqKkodMKanp+PYsWPo0KEDWrdujRMnTmDfvn3o27cvLl68CLvdjkuXLiEqKgoxMTGQZRmZmZk4cOAAAgMDceutt0KWZaSmpiIvLw+JiYlo2bIljEYjHA4H+eERBEHUU7jM1cst8bfIyEg8/vjjALSzqGKIVP3GRaJBjV+j311UvyGdGGyADKO1w+OkOvmAey68YeqjDoiNXa+Y8+P8Wv1ncYt4fp04UudKvRizW28Vr6mlmE/p8fTz5/L3EqPc+Pn5ITY2Vt2AyN/fH1lZWejQoQMURcFPP/2EJUuWoF+/fli1ahXGjx+PoqIiXLx4EdnZ2di8ebPqC19RUQG73Y4HH3wQ7733HhITE3Hu3DkcOnQIDocDeXl5SEhIwMcff4xnn30WMTExLt/khSAIgvAMRMOVKD/FBZn8GFDZjVE8T3QdFcPv6tchiecBVyzf3KhWm/VYxBU8agijV8BNJhO5oHgo+hExR2yYzn7XN/aq7qffFl5/XlX3ry76OPP8s/6ZfNdPs9mM8+fP46uvvkKvXr1gsVggSRLmzp2LoKAg1edu3rx5SEhIQJcuXdC1a1cYDAYMHDgQ06ZNQ8OGDSFJEo4cOYLWrVvjySefxGuvvYa+ffsiODgY2dnZKCsrw5AhQxASEkL1nyAIoh4jGsCu5sbp7Jj4Xx/dS7R6O5PlItxgJqaHqD0eYwnnbgl8ESYp4N5BVY32aoqxs0Ud16NI13QxSHXvp7fqc4tBSEgIYmJicPjwYSxZsgRLly7F4sWLYTAYkJ+fjzFjxqBDhw7o2rUr/P39NfdTFAWNGzdWfeoYY7DZbGqEGbPZjMaNG2P06NHo2bMntm7dig8//BD+/v649dZbqdMjCIKox1Ql95zpSM7OdSbnrvXb9chxonZ4hIbLGFM3POH+SzyiBEG4A25R4FsN801Xbr75ZqxduxatWrVCREQEgMv1d+TIkTh16hTi4+Oxe/f/t3f3KlJsXRjHV+2q6hpFkAGNFIQxEhFBMDAVTATvQPESTARBEEXBwMTMKzAyNhUMDE4iXoCBkSAYKGPUtT/qDeZde3bV6TNOz/RXVf1/0HjweKRnTk/Vs3etvdY/8v79+/jf//nzJ55oT3cqdnZ25Nu3b/L9+3f5/PmzPHjwQF68eCE/f/6Uu3fvyo0bN+THjx+tA64AAGAY1r4Trofa6rqOJSgcwsQ6dU+eG2Pk4sWL4r2XS5cuybVr1+T27dtSVZVcuXJFTuKjG2sAAAfwSURBVJ8+LU+ePJFXr17Js2fP5NSpU/Lo0SMJIcj29rZ8+PBBrl+/LufOnZOmaWRnZ0e2t7fl6tWr8vXrV3nz5o1Mp1N5+fKl1HUtb9++lY8fP8rZs2fl5s2bMwf7AACAfltrCNcATg04NsmsBeCdO3fi7z99+jTuTN+7d09E9s4zPH78WKy1cRFpjJGHDx/GUK8n2G/duhVD/v3792MvcZG9R4uXL1+OpSrpYVQAADAca0u7IYTYhlAf9xdFwY4fNkJ66DNt0aRnF9I/I7LfaaWqqriDrn1W8zyP/15k/5S5/t3dhaf2bNUT6NrBBQAADMdaQnhaA649L6kBx6boHljpHj5NW0SlLRp1Iqi2OkxbHmoP8vQ0uh7+1B3ybj90rUNnJxwAgOFZeTmKBnAdxEMNODbVQSfMD+qsIrJ/Yl1/nTVop9tuatbvU5oFAMAwrTSEpwFcd/q0BIUQDgAAgLFYWQjXcavOufiIXUtQCOAAAAAYk5WEcA3gWgNujJGqqhh7CgAAgFFaeghPA7h2QSnLkgAOAACA0VrqqS8N4NqGMM9zasABAAAweksN4RrAnXNijIkHMQngAAAAGLOlhXCdhqmDRsqyJIADAAAAsoSacB1gkh7CpAQFAAAA2LfQnXAN4NbaVgDvjuUGAAAAxmyhyVhLUJxzkmUZARwAAACYYWHlKLoD7pwTEZHJZEINOAAAADDDsUM4NeCbr2ma0f+/SL8HY/9eAACWj3sv34O/OXYIT7ugUAO+eZqmkaZp4j8bY0Y1KEm//izLJIQQvxcAACwL9979e69u1o7la5/HsUJ4CEG897EERYfxEMA3h37o0yDqnBtFGNWLgH4e9WLAhQAAsEzde2/TNGKtHcW9V0TigEY1pgXIPI6cltNpmN57dsA3lF4AjDFS13VcjY+Bft0i+wvGEIKEENb8zgAAQ9a992ZZ1gqlQ6dfK/fegx1pJ1xXdLqqm0wmUpblaMJdn6SPxCaTSeuHYAwr8vRCGEIY1SIEALAes+69aXnK0M2697IT/m9zh3Bd1Vhr9/6CopCyLEe1wusTLcdIH4mJiDx//lzOnDmz5ne3Wnoh+PLly7rfCgBgwJqmkTzPYy203ntfv34t7969W/O7Wy2993769Gndb2XjZM0cS7I0gHvvpSxLAviGS8O3/vrr1y/Z3d1d91tbCT0Qkud5qx78woULrMoBAEuRRis9j7W7uyu/f/9e47taHb33pmeyRETOnz8vRbHwYe29degQ3jSNOOdiK0ItQSGAA4ejP0PW2niImZ8f9IG2oZ1Op/EMUFVVlCGOlM4F0Q2OsizZ1ACO4FDLkTQ8UAMOAMOnh+/12i+yV364tbUleZ5T4wkAx/TXEN4N4LrqZQcPAIYnDd/e+1aPY316wwYMABzfgSE8DeD6CJIdcAAYHq3h9N7HV3fjhWs/RNpTh8fQ6QNYlgNDuB7CdM61DmHyCBIAhiNtO1vXdQzeXPMxS5ZlrWE0AI5mZghPd8BDCFyMAWCA0ppvbaW2tbUVy07SsAUAWKx/hfCDasC5GANAv6VlJ1r3nWVZDN46+ZjrPQAsVyuE/1cNOAEcAPpNw3da962732VZ0jITAFasFcK991LXtVhrKUEBgAHR3s51XUsIQYqioN0sAKxRDOH6aLJpmnhx5pEkAPSXthvUA/Yie72+teREXwCA1Sv0EaWWoNALFgD6rVvzLSLxmp4eugQArE8RQhDnnDjn4uEcRtACQP/opope0zWA69NNwjcAbI7COSd1XcfDOQRwAOgfPViv53qMMVKWZQzfAIDNUjjnxBjDLgkA9EzTNHHQjnOu1es7z3Ou6Vg6/QzyOQPmV6T9YakBB4B+0DaDGr5FJAZven1j2bqj6wniwPwKHcbDDw8AbLZZvb699zF4E76xKjpNlbH1wNEVBHAA2Hxpu8HpdBoP0p84cYInmQDQQwUBHAA2Vxq+dcplOkyNnW8A6CdCOABsoG7JiYjEPt/psB0AQD8Vf/8jAIBV0Z3vbgDXGQ50PAGAYSCEA8CG0N3v6XQq3vs4v2EymVB2AgADQwgHViSEENt46QsQkdhq0ForIQTJ8zz2+tbwzecFAIaFEA6sEO28oLoj5nXQTrfshPANAMNECAeAFdLBJlrvne5+l2UZh6cBfcHmAnA0hHAAWBHd/a7rWqy10jSN5HkuJ0+elKIo2PVG7+iikomZwPwI4QCwZGmvb+eciEjc8WbKJfqIUing+AjhALAk2u3EORd3C40xkud5fNHrG33G6Hrg6AjhALBAGrbTAO69bw3aodc3AIAQDgALogHcWtvq9V1VFYN2AAAthHAAOKa03aB2OzHGyGQyadV8E8ABAIoQDgBHlIZv772EEERE4q63vgAA6CKEA8CcNHynAVwPXeqwHXa+AQAHIYQDwBy03WBd13HSZVmWUlUVvb4BAIdGCAeAQ0hrvp1zrV1vYwy9vgEAcyGEA8ABuq0Gm6ZpDdqh4wnGTDsCAZgfIRwAZtCab+99fGVZFne/Cd8Ys+6ZB4I4MD9COAB0hBDEWit1XcdBO5PJJIZvYOw4eAwcHyEcAP5Py07quhYREWNMq90goQMAsAhN0xDCAYybdjvRl7YaNMbE8M2hSwDAIoUQCOEAxint9W2tFe+9iIjkeR53v40xa36XAICh8d6LtZYQDmB8dPfbWhvHzJdlGcfMs+sNAFiW6XQq1lr5HzwcVu0RiClNAAAAAElFTkSuQmCC;" vertex="1" parent="1">
          <mxGeometry x="1340" width="487" height="377.31" as="geometry" />
        </mxCell>
        <mxCell id="x4ki8EkPmhbNd4kiTr1v-36" value="" style="swimlane;startSize=0;" vertex="1" parent="1">
          <mxGeometry x="35" y="75" width="130" height="60" as="geometry" />
        </mxCell>
        <mxCell id="x4ki8EkPmhbNd4kiTr1v-37" value="&lt;div&gt;Influx&lt;/div&gt;" style="text;html=1;align=center;verticalAlign=middle;resizable=0;points=[];autosize=1;strokeColor=none;fillColor=none;" vertex="1" parent="x4ki8EkPmhbNd4kiTr1v-36">
          <mxGeometry x="45" y="20" width="50" height="30" as="geometry" />
        </mxCell>
        <mxCell id="x4ki8EkPmhbNd4kiTr1v-39" value="rafana" style="whiteSpace=wrap;html=1;aspect=fixed;" vertex="1" parent="1">
          <mxGeometry x="-20" y="360" width="140" height="140" as="geometry" />
        </mxCell>
        <mxCell id="x4ki8EkPmhbNd4kiTr1v-43" value="&lt;div&gt;NGINIX&lt;/div&gt;&lt;div&gt;&lt;br&gt;&lt;/div&gt;" style="rhombus;whiteSpace=wrap;html=1;" vertex="1" parent="1">
          <mxGeometry x="470" y="510" width="120" height="130" as="geometry" />
        </mxCell>
      </root>
    </mxGraphModel>
  </diagram>
</mxfile>
